<svg width="130" height="85" viewBox="0 0 130 85" fill="none" xmlns="http://www.w3.org/2000/svg">
<path d="M28.9104 20.3057C29.8935 20.2902 30.8541 20.6011 31.6418 21.1896C32.4389 21.7877 33.0001 22.6472 33.227 23.6176L45.9825 66.8696H33.0355L24.8707 34.7525C24.6909 33.9893 24.5318 33.1673 24.3992 32.2921C24.2666 31.417 24.1282 30.5949 23.9926 29.8288H22.1717C22.0803 30.5949 21.9566 31.4141 21.8004 32.2921C21.6442 33.1702 21.4733 33.9893 21.2936 34.7525L13.1288 66.8696H0.164062L12.9196 23.6176C13.1453 22.6467 13.7067 21.7868 14.5048 21.1896C15.2925 20.6011 16.2531 20.2902 17.2362 20.3057H28.9104ZM35.3191 46.6889V55.7966H10.8216V46.6889H35.3191Z" fill="#333433"/>
<path d="M81.6701 20.3051V62.408C81.6701 65.3781 80.2087 66.8632 77.2857 66.8632H71.6166C70.2671 66.8632 69.2663 66.5479 68.6141 65.9173C67.8211 65.0958 67.1512 64.1639 66.6252 63.1505L55.2221 43.3293C54.68 42.2037 54.1398 40.9888 53.6015 39.6844C53.0714 38.4092 52.6207 37.1024 52.252 35.7714H51.6451C51.8258 37.0777 51.9721 38.4154 52.0841 39.7846C52.1961 41.1538 52.252 42.4699 52.252 43.7329V66.8779H40.4453V24.7662C40.4453 21.798 41.9294 20.314 44.8975 20.314H50.4959C51.8454 20.314 52.8345 20.6283 53.4631 21.2568C54.247 22.094 54.9267 23.0231 55.4873 24.0236L66.4189 43.1201C67.0901 44.2786 67.698 45.4727 68.2399 46.6971C68.8292 48.0015 69.392 49.3765 69.9282 50.8223H70.5352C70.3997 49.4276 70.2867 48.0526 70.1964 46.6971C70.106 45.3417 70.0618 43.9922 70.0638 42.6486L69.996 20.314L81.6701 20.3051Z" fill="#333433"/>
<path d="M116.962 20.3051V29.955H77.3516V20.3051H116.962ZM103.534 20.3051V66.8602H90.8496V20.3051H103.534Z" fill="#333433"/>
<path d="M0.0195312 76.035H5.99803C6.41539 76.0318 6.83257 76.0534 7.24736 76.0998C7.53493 76.1313 7.81778 76.1966 8.09007 76.2943C8.28141 76.3628 8.45541 76.4724 8.59981 76.6154C8.71932 76.7446 8.80886 76.8985 8.86205 77.0663C8.9212 77.2573 8.95391 77.4556 8.95929 77.6556C8.95929 77.8707 8.95929 78.1064 8.95929 78.3657C8.95929 78.625 8.95929 78.8843 8.94161 79.1112C8.93243 79.3223 8.89171 79.5309 8.8208 79.7299C8.75376 79.9151 8.64369 80.0818 8.49963 80.2161C8.31932 80.3769 8.10617 80.4966 7.87497 80.5667C7.53987 80.6744 7.19409 80.7456 6.84369 80.7789C6.33384 80.8332 5.82125 80.8578 5.30854 80.8525H1.01546V83.9906H0.0195312V76.035ZM1.01546 80.0128H5.32033C5.76231 80.0128 6.13357 80.0128 6.43412 79.9922C6.68532 79.9817 6.93544 79.9531 7.18253 79.9067C7.34522 79.8795 7.50064 79.8193 7.63925 79.7299C7.74482 79.6567 7.82674 79.5543 7.87497 79.4353C7.92896 79.2919 7.95882 79.1405 7.96336 78.9874C7.96336 78.8136 7.96336 78.6044 7.96336 78.3627C7.96336 78.1211 7.96336 77.9443 7.96336 77.7734C7.95911 77.6327 7.92916 77.4939 7.87497 77.3639C7.825 77.2544 7.74274 77.1629 7.63925 77.1016C7.498 77.0223 7.34306 76.9703 7.18253 76.9484C6.93515 76.9064 6.68499 76.8828 6.43412 76.8777C6.13947 76.8777 5.76231 76.863 5.32033 76.863H1.01546V80.0128Z" fill="#333433"/>
<path d="M20.7153 76.0347H21.7112V83.9903H20.7153V80.3337H13.4227V83.9903H12.4297V76.0347H13.4227V79.5175H20.7153V76.0347Z" fill="#333433"/>
<path d="M25.8359 76.0347H26.8319V83.9903H25.8359V76.0347Z" fill="#333433"/>
<path d="M30.9453 83.9903V76.0347H31.9412V83.1623H38.238V83.9903H30.9453Z" fill="#333433"/>
<path d="M48.0028 75.8578C48.5167 75.8511 49.0303 75.8885 49.5379 75.9697C49.897 76.0237 50.2445 76.1373 50.5662 76.3056C50.8188 76.4387 51.0329 76.6346 51.188 76.8743C51.34 77.1208 51.4477 77.3921 51.5062 77.6758C51.5786 78.019 51.6191 78.3682 51.627 78.7188C51.6388 79.1117 51.6447 79.539 51.6447 80.0006C51.6447 80.472 51.6447 80.8845 51.627 81.2853C51.6191 81.6359 51.5786 81.9851 51.5062 82.3283C51.4477 82.612 51.34 82.8833 51.188 83.1298C51.0329 83.3695 50.8188 83.5654 50.5662 83.6985C50.2445 83.8668 49.897 83.9804 49.5379 84.0344C49.0303 84.1156 48.5167 84.153 48.0028 84.1463H45.0091C44.4951 84.153 43.9815 84.1156 43.474 84.0344C43.115 83.9799 42.7675 83.8664 42.4456 83.6985C42.1934 83.5638 41.9787 83.3683 41.8209 83.1298C41.6667 82.8841 41.5579 82.6126 41.4998 82.3283C41.428 81.9851 41.3896 81.6358 41.3849 81.2853C41.3849 80.8993 41.3672 80.472 41.3672 80.0006C41.3672 79.5291 41.3672 79.1166 41.3849 78.7188C41.3896 78.3683 41.428 78.019 41.4998 77.6758C41.5579 77.3915 41.6667 77.12 41.8209 76.8743C41.9787 76.6358 42.1934 76.4403 42.4456 76.3056C42.7675 76.1377 43.115 76.0242 43.474 75.9697C43.9815 75.8885 44.4951 75.8511 45.0091 75.8578H48.0028ZM48.0028 83.3154C48.4418 83.3154 48.813 83.3154 49.1136 83.2771C49.3695 83.2631 49.6218 83.2104 49.862 83.1209C50.0438 83.0531 50.2024 82.9345 50.3187 82.7792C50.4369 82.6013 50.5162 82.4005 50.5515 82.1898C50.6044 81.8921 50.633 81.5906 50.637 81.2882C50.637 80.9287 50.637 80.5015 50.637 80.0035C50.637 79.5055 50.637 79.0813 50.637 78.7218C50.633 78.4194 50.6044 78.1179 50.5515 77.8201C50.5168 77.6094 50.4374 77.4085 50.3187 77.2308C50.2028 77.0763 50.0455 76.9578 49.865 76.889C49.6258 76.7995 49.3745 76.7468 49.1195 76.7329C48.8248 76.7064 48.4447 76.6916 48.0028 76.6916H45.0091C44.5671 76.6916 44.1958 76.7064 43.8924 76.7329C43.6365 76.7472 43.3842 76.7999 43.1439 76.889C42.963 76.9569 42.8054 77.0756 42.6902 77.2308C42.5708 77.4081 42.4913 77.6091 42.4574 77.8201C42.4031 78.1177 42.3745 78.4193 42.372 78.7218C42.372 79.0813 42.372 79.5085 42.372 80.0035C42.372 80.5015 42.372 80.9287 42.372 81.2882C42.3759 81.5906 42.4045 81.8921 42.4574 82.1898C42.4944 82.3995 42.5725 82.5998 42.6872 82.7792C42.8025 82.9344 42.96 83.053 43.141 83.1209C43.3813 83.2101 43.6335 83.2628 43.8894 83.2771C44.1841 83.3036 44.5642 83.3154 45.0061 83.3154H48.0028Z" fill="#333433"/>
<path d="M60.4397 79.5053C60.9091 79.5004 61.3784 79.5231 61.8452 79.5731C62.1801 79.6065 62.5108 79.6737 62.8323 79.7734C63.0642 79.8426 63.281 79.9545 63.4717 80.1035C63.6237 80.2261 63.749 80.3785 63.84 80.5513C63.9279 80.7289 63.9847 80.9203 64.008 81.1171C64.0349 81.3419 64.0477 81.5683 64.0463 81.7948C64.0479 82.0223 64.0262 82.2494 63.9814 82.4725C63.9013 82.898 63.6567 83.2748 63.3008 83.5214C63.0782 83.6741 62.8339 83.7924 62.5759 83.8721C62.2303 83.979 61.875 84.052 61.5152 84.0901C61.0349 84.1444 60.5518 84.17 60.0685 84.1667H58.7425C58.3067 84.1692 57.871 84.1495 57.4372 84.1078C57.1115 84.0802 56.789 84.023 56.4737 83.9369C56.237 83.8735 56.0114 83.7742 55.8048 83.6422C55.6379 83.5322 55.4946 83.39 55.3835 83.2238C55.2755 83.0569 55.2005 82.8709 55.1625 82.6758C55.1194 82.4505 55.0987 82.2215 55.1006 81.9922H56.0965C56.0846 82.2465 56.1299 82.5002 56.2291 82.7347C56.3251 82.9187 56.4841 83.062 56.677 83.1384C56.9371 83.2384 57.2118 83.2951 57.4902 83.3063C57.8291 83.3299 58.2446 83.3417 58.7425 83.3417H60.0685C60.5511 83.3473 61.0336 83.3187 61.5123 83.2562C61.8304 83.2197 62.1402 83.1301 62.4286 82.991C62.6387 82.891 62.8097 82.7242 62.9148 82.5167C63.0138 82.2913 63.0611 82.0467 63.0533 81.8007C63.0606 81.5623 63.0288 81.3244 62.959 81.0964C62.8919 80.9055 62.7579 80.7453 62.5818 80.6456C62.3338 80.5178 62.0639 80.4378 61.7863 80.4099C61.3404 80.3569 60.8916 80.3332 60.4427 80.3392H59.0755C58.4685 80.3392 57.947 80.3156 57.5138 80.2714C57.1454 80.2389 56.7806 80.1738 56.4236 80.0769C56.1726 80.0127 55.9345 79.9061 55.7194 79.7617C55.5562 79.6477 55.4196 79.5 55.3187 79.3285C55.2261 79.1614 55.1652 78.9786 55.1389 78.7893C55.111 78.5753 55.0972 78.3598 55.0977 78.144C55.0971 77.9175 55.1188 77.6915 55.1625 77.4693C55.2042 77.2673 55.2864 77.0758 55.4041 76.9065C55.5352 76.7277 55.6992 76.5757 55.8873 76.4586C56.131 76.3114 56.3951 76.2012 56.6711 76.1315C57.0488 76.0323 57.4342 75.9653 57.8232 75.9312C58.2711 75.887 58.8015 75.8634 59.4084 75.8634H60.4014C60.8372 75.8601 61.2728 75.8788 61.7067 75.9194C62.0326 75.9455 62.3553 76.0027 62.6702 76.0903C62.9076 76.1544 63.1341 76.2537 63.342 76.3849C63.511 76.4922 63.6556 76.6337 63.7663 76.8004C63.8749 76.9659 63.9499 77.1511 63.9873 77.3455C64.0304 77.5688 64.0511 77.7958 64.0492 78.0232H63.0533C63.0652 77.7737 63.0198 77.5247 62.9207 77.2954C62.8246 77.114 62.6668 76.9729 62.4758 76.8976C62.2134 76.7988 61.9368 76.7431 61.6566 76.7326C61.3188 76.7091 60.9004 76.6973 60.4014 76.6973H59.4084C58.8615 76.692 58.3146 76.7156 57.7702 76.768C57.4225 76.7961 57.081 76.8756 56.7566 77.0037C56.5384 77.0892 56.3556 77.246 56.238 77.4486C56.1346 77.6675 56.0851 77.908 56.0936 78.1499C56.0922 78.3039 56.1041 78.4576 56.129 78.6096C56.1503 78.7381 56.2007 78.86 56.2763 78.9661C56.36 79.0749 56.468 79.1626 56.5916 79.2224C56.7614 79.3016 56.9406 79.359 57.1249 79.3933C57.3924 79.4437 57.6632 79.4752 57.9352 79.4876C58.2534 79.5083 58.6335 79.5171 59.0755 79.5171L60.4397 79.5053Z" fill="#333433"/>
<path d="M74.1404 75.8587C74.6544 75.8519 75.168 75.8893 75.6756 75.9707C76.0347 76.0247 76.3822 76.1382 76.7039 76.3066C76.9565 76.4397 77.1706 76.6355 77.3256 76.8752C77.4801 77.1205 77.588 77.3922 77.6439 77.6767C77.7163 78.0199 77.7567 78.3691 77.7647 78.7198C77.7765 79.1126 77.7823 79.5399 77.7823 80.0015C77.7823 80.4729 77.7823 80.8855 77.7647 81.2862C77.7567 81.6369 77.7163 81.986 77.6439 82.3292C77.588 82.6137 77.4801 82.8854 77.3256 83.1307C77.1702 83.3694 76.9561 83.5641 76.7039 83.6964C76.3822 83.8648 76.0347 83.9783 75.6756 84.0323C75.168 84.1137 74.6544 84.1511 74.1404 84.1443H71.1468C70.6328 84.151 70.1192 84.1135 69.6116 84.0323C69.2528 83.9774 68.9054 83.8639 68.5833 83.6964C68.3311 83.5617 68.1164 83.3663 67.9586 83.1278C67.8056 82.8814 67.6969 82.6102 67.6375 82.3263C67.5672 81.9829 67.5287 81.6337 67.5226 81.2832C67.5226 80.8972 67.5078 80.47 67.5078 79.9986C67.5078 79.5271 67.5078 79.1146 67.5226 78.7168C67.5287 78.3663 67.5672 78.0172 67.6375 77.6737C67.6969 77.3899 67.8056 77.1186 67.9586 76.8723C68.1164 76.6338 68.3311 76.4383 68.5833 76.3036C68.9054 76.1361 69.2528 76.0227 69.6116 75.9677C70.1192 75.8865 70.6328 75.849 71.1468 75.8557L74.1404 75.8587ZM74.1404 83.3163C74.5795 83.3163 74.9507 83.3163 75.2513 83.278C75.5072 83.2644 75.7596 83.2117 75.9997 83.1219C76.1815 83.054 76.34 82.9354 76.4564 82.7801C76.5746 82.6022 76.6539 82.4014 76.6892 82.1908C76.7435 81.8932 76.7721 81.5916 76.7746 81.2891C76.7746 80.9297 76.7894 80.5024 76.7894 80.0044C76.7894 79.5065 76.7894 79.0822 76.7746 78.7227C76.7721 78.4203 76.7435 78.1186 76.6892 77.8211C76.6544 77.6103 76.5751 77.4094 76.4564 77.2318C76.3405 77.0773 76.1832 76.9587 76.0026 76.89C75.7636 76.8001 75.5122 76.7475 75.2572 76.7338C74.9625 76.7073 74.5824 76.6926 74.1404 76.6926H71.1468C70.7048 76.6926 70.3335 76.7073 70.03 76.7338C69.7742 76.7482 69.5219 76.8008 69.2816 76.89C69.1011 76.9587 68.9438 77.0773 68.8279 77.2318C68.7084 77.409 68.629 77.6101 68.5951 77.8211C68.5404 78.1185 68.5128 78.4203 68.5126 78.7227C68.5126 79.0822 68.5126 79.5094 68.5126 80.0044C68.5126 80.4995 68.5126 80.9297 68.5126 81.2891C68.5166 81.5915 68.5452 81.893 68.598 82.1908C68.6346 82.401 68.7138 82.6016 68.8308 82.7801C68.9449 82.9352 69.1015 83.0539 69.2816 83.1219C69.5219 83.211 69.7742 83.2637 70.03 83.278C70.3247 83.3046 70.7048 83.3163 71.1468 83.3163H74.1404Z" fill="#333433"/>
<path d="M81.5781 76.035H87.5537C87.971 76.0318 88.3882 76.0535 88.803 76.0998C89.0906 76.1313 89.3734 76.1965 89.6457 76.2943C89.8371 76.3628 90.011 76.4724 90.1555 76.6154C90.274 76.7453 90.3634 76.899 90.4177 77.0663C90.4758 77.2575 90.5075 77.4557 90.512 77.6556C90.512 77.8707 90.5267 78.1064 90.5267 78.3657C90.5267 78.625 90.5267 78.8843 90.509 79.1111C90.4984 79.3221 90.4578 79.5305 90.3882 79.7299C90.3212 79.9151 90.2111 80.0818 90.0671 80.2161C89.8852 80.3763 89.6712 80.4958 89.4395 80.5667C89.1054 80.6744 88.7606 80.7456 88.4111 80.7789C87.9003 80.8332 87.3867 80.8578 86.873 80.8525H82.5741V83.9906H81.5781V76.035ZM82.5741 80.0128H86.876C87.318 80.0128 87.6922 80.0128 87.9927 79.9921C88.2439 79.9815 88.494 79.953 88.7411 79.9067C88.9038 79.8795 89.0592 79.8193 89.1978 79.7299C89.3027 79.656 89.3845 79.5538 89.4336 79.4353C89.4875 79.2919 89.5174 79.1405 89.522 78.9874C89.522 78.8135 89.522 78.6043 89.522 78.3627C89.522 78.1211 89.522 77.9443 89.522 77.7734C89.5177 77.6326 89.4878 77.4938 89.4336 77.3639C89.3836 77.2544 89.3013 77.1629 89.1978 77.1016C89.0566 77.0223 88.9016 76.9703 88.7411 76.9484C88.4937 76.9065 88.2436 76.8829 87.9927 76.8777C87.6981 76.8777 87.318 76.8629 86.876 76.8629H82.5741V80.0128Z" fill="#333433"/>
<path d="M102.277 76.0347H103.27V83.9903H102.277V80.3337H94.9725V83.9903H93.9766V76.0347H94.9725V79.5175H102.277V76.0347Z" fill="#333433"/>
<path d="M107.055 76.0347H108.381L112.028 79.93L115.673 76.0347H116.999L112.526 80.6754V83.9903H111.53V80.6637L107.055 76.0347Z" fill="#333433"/>
<path d="M116.466 13.3868C116.325 13.4551 116.17 13.4917 116.013 13.4939C115.855 13.4961 115.7 13.464 115.556 13.3997C115.413 13.3354 115.285 13.2406 115.182 13.1218C115.079 13.003 115.004 12.8632 114.96 12.712C114.96 12.7356 114.943 12.7503 114.937 12.7651C114.887 12.9178 114.828 13.0674 114.76 13.213C114.707 13.3252 114.673 13.4458 114.66 13.5695C114.577 14.4552 114.232 15.2963 113.67 15.9856C113.202 16.5563 112.6 17.001 111.917 17.2792C111.54 17.4224 111.141 17.4953 110.738 17.4943C110.661 17.4943 110.635 17.5208 110.617 17.5915C110.463 18.2616 110.161 18.8888 109.733 19.4272C109.462 19.7806 109.098 20.0511 108.681 20.208C108.466 20.2792 108.239 20.3111 108.012 20.3023C107.994 20.2993 107.977 20.2944 107.959 20.2876C107.979 20.2758 108 20.2669 108.021 20.261C108.311 20.2026 108.586 20.0867 108.831 19.9202C109.075 19.7537 109.284 19.54 109.444 19.2916C109.868 18.6783 110.18 17.9951 110.367 17.2733C110.39 17.1937 110.417 17.1701 110.496 17.176C110.951 17.2238 111.411 17.199 111.858 17.1024C112.471 16.9605 113.009 16.5948 113.366 16.077C113.642 15.6698 113.866 15.2305 114.035 14.7687C114.162 14.4534 114.265 14.1293 114.377 13.8081V13.764C114.377 13.764 114.356 13.764 114.35 13.764C113.862 14.2692 113.236 14.6197 112.55 14.7717C111.91 14.9314 111.246 14.9714 110.591 14.8895C109.645 14.7926 108.736 14.4725 107.939 13.9555C107.378 13.6019 106.904 13.1253 106.554 12.5618C106.257 12.0925 106.111 11.5433 106.136 10.9883C106.165 10.4152 106.408 9.87381 106.816 9.47086C107.302 8.98661 107.915 8.6504 108.584 8.50145C109.279 8.33622 110 8.30721 110.706 8.41601C111.499 8.52255 112.264 8.78704 112.954 9.19389C113.611 9.56508 114.163 10.0962 114.56 10.7379C114.781 11.0956 114.92 11.4983 114.966 11.9165C114.966 11.9165 114.966 11.943 114.966 11.9784C115.036 11.8327 115.137 11.7043 115.263 11.6024C115.388 11.5005 115.534 11.4276 115.691 11.3891C115.847 11.3488 116.01 11.3449 116.168 11.3776C116.326 11.4103 116.474 11.4787 116.602 11.5776C116.565 11.2577 116.597 10.9337 116.693 10.6265C116.79 10.3194 116.95 10.0359 117.163 9.79437C117.376 9.55284 117.637 9.35861 117.929 9.22423C118.222 9.08984 118.54 9.01828 118.862 9.01415L118.791 8.91986C118.518 8.57617 118.332 8.17193 118.249 7.74125C118.213 7.54647 118.213 7.34672 118.249 7.15195C118.275 6.98989 118.272 6.82488 118.296 6.66577C118.342 6.44394 118.436 6.23486 118.571 6.05317C118.707 5.87147 118.88 5.72154 119.08 5.61386C119.209 5.52546 119.345 5.44296 119.474 5.35161C119.805 5.137 120.195 5.03374 120.588 5.05696C120.991 5.07113 121.389 5.1487 121.767 5.2868C121.784 5.29174 121.801 5.29298 121.819 5.29043C121.836 5.28789 121.852 5.28162 121.867 5.27206C122.442 4.77858 122.917 4.17819 123.264 3.50415C123.456 3.13029 123.572 2.7214 123.603 2.30196C123.604 2.27987 123.61 2.25834 123.621 2.23862C123.631 2.2189 123.645 2.20137 123.661 2.18705C124.435 1.60018 125.25 1.0685 126.098 0.595926C126.31 0.478065 126.528 0.369046 126.744 0.257078C126.77 0.247641 126.799 0.247641 126.826 0.257078C126.785 0.295382 126.746 0.333684 126.702 0.369043C125.917 1.04678 125.075 1.65599 124.186 2.19C124.076 2.23645 123.976 2.30345 123.891 2.38741C123.842 2.49083 123.813 2.60292 123.806 2.71742C123.688 3.16404 123.489 3.58477 123.217 3.95791C122.86 4.45917 122.43 4.90412 121.941 5.27795L121.876 5.32805C122.064 5.41939 122.25 5.49895 122.427 5.59618C122.657 5.72583 122.881 5.86726 123.102 6.00869C123.155 6.04499 123.22 6.05973 123.284 6.04995C123.833 5.96672 124.343 5.71318 124.74 5.3251C125.102 4.98781 125.402 4.58872 125.624 4.14649C125.633 4.12586 125.647 4.10795 125.665 4.09451C125.683 4.08108 125.705 4.07259 125.727 4.06988C126.349 3.98443 126.967 3.87541 127.589 3.80764C128.158 3.74576 128.727 3.72219 129.295 3.68094C129.326 3.67725 129.357 3.68344 129.384 3.69862L129.31 3.72514C128.794 3.843 128.279 3.9697 127.76 4.06988C127.241 4.17006 126.626 4.26435 126.057 4.34096C125.99 4.34593 125.925 4.36703 125.868 4.40243C125.812 4.43784 125.764 4.4865 125.73 4.54427C125.456 4.95903 125.109 5.32129 124.707 5.61386C124.326 5.89465 123.878 6.07044 123.408 6.12361H123.376L123.435 6.1737C124.122 6.70388 124.684 7.38018 125.079 8.15376C125.268 8.52614 125.404 8.92272 125.485 9.33237C125.546 9.70672 125.462 10.0902 125.251 10.4052C125.04 10.7202 124.717 10.9434 124.348 11.0296C123.835 11.1507 123.303 11.1767 122.78 11.1062C122.093 11.0115 121.427 10.8013 120.809 10.4845L120.744 10.4579C120.858 10.9087 120.823 11.3842 120.644 11.8134C120.471 12.2448 120.171 12.6136 119.784 12.8712L119.996 13.1864C120.241 13.5281 120.519 13.8457 120.824 14.1352C121.014 14.3144 121.241 14.451 121.488 14.5359C121.736 14.6207 121.999 14.6519 122.259 14.6273L122.592 14.5978C122.622 14.5952 122.653 14.6003 122.68 14.6126C123.11 14.8018 123.496 15.0784 123.813 15.4249C124.13 15.7714 124.371 16.1801 124.522 16.625C124.602 16.8691 124.639 17.1254 124.631 17.3823C124.63 17.3891 124.629 17.3957 124.626 17.4018C124.623 17.4079 124.618 17.4133 124.613 17.4176C124.601 17.3936 124.59 17.3691 124.581 17.344C124.216 16.3247 123.523 15.4559 122.61 14.8748C122.585 14.8591 122.556 14.8509 122.527 14.8512C121.787 14.7959 121.075 14.5436 120.464 14.1205C120.103 13.8483 119.821 13.484 119.648 13.0656L119.622 13.0067C118.673 13.4369 117.824 13.3249 117.088 12.547C117.088 12.547 117.088 12.5765 117.088 12.5942C117.05 12.8277 116.936 13.0422 116.764 13.2041C116.742 13.2262 116.728 13.2555 116.725 13.2866C116.754 13.8619 116.847 14.4321 117.002 14.9868C117.036 15.0919 117.086 15.1912 117.15 15.2814C117.296 15.5158 117.38 15.7835 117.394 16.0593C117.427 16.5811 117.385 17.1049 117.27 17.6151C117.185 18.0865 117.091 18.555 117.011 19.0294C116.965 19.4268 116.965 19.8282 117.011 20.2257C117.013 20.2473 117.013 20.2689 117.011 20.2905H116.991C116.955 20.2139 116.902 19.8043 116.873 19.7248C116.762 19.395 116.721 19.0459 116.752 18.6994C116.798 18.1433 116.897 17.5928 117.047 17.0552C117.117 16.7606 117.191 16.4659 117.238 16.1536C117.268 16.0045 117.263 15.8503 117.222 15.7038C117.181 15.5573 117.106 15.4226 117.002 15.3109C116.677 14.946 116.497 14.4739 116.498 13.9849C116.46 13.7964 116.466 13.5931 116.466 13.3868ZM110.016 8.80789C109.66 8.79885 109.304 8.83148 108.955 8.90513C108.932 8.90786 108.91 8.91538 108.89 8.92722C108.871 8.93905 108.853 8.95493 108.84 8.97382C108.827 8.99272 108.817 9.0142 108.813 9.03689C108.808 9.05957 108.809 9.08294 108.814 9.10549C108.818 9.12822 108.827 9.1498 108.841 9.16891C108.854 9.18802 108.871 9.20426 108.89 9.21666C108.91 9.22906 108.932 9.23736 108.954 9.24104C108.977 9.24472 109.001 9.24372 109.023 9.23808C109.17 9.21451 109.318 9.1821 109.468 9.17032C110.171 9.11492 110.877 9.22386 111.531 9.48854C111.942 9.64988 112.332 9.86169 112.692 10.1191C112.743 10.1559 112.805 10.1765 112.868 10.178C112.9 10.1756 112.93 10.1622 112.953 10.1402C112.976 10.1182 112.991 10.0889 112.995 10.0572C113.004 10.0195 113.001 9.9799 112.985 9.94432C112.97 9.90874 112.943 9.87909 112.91 9.8598C112.073 9.22501 111.065 8.85828 110.016 8.80789ZM119.021 6.91033C119.059 6.91015 119.096 6.89777 119.127 6.87498C119.158 6.85219 119.18 6.82019 119.192 6.78363C119.258 6.62876 119.336 6.47906 119.424 6.33576C119.696 5.93332 120.111 5.64983 120.585 5.54315C120.609 5.54078 120.632 5.53337 120.653 5.5214C120.674 5.50944 120.692 5.49318 120.707 5.4737C120.721 5.45422 120.731 5.43196 120.736 5.40838C120.741 5.3848 120.741 5.36044 120.736 5.33689C120.731 5.31267 120.721 5.2898 120.706 5.2699C120.692 5.25 120.673 5.23357 120.651 5.22175C120.63 5.20994 120.606 5.20304 120.581 5.20155C120.556 5.20006 120.532 5.20402 120.509 5.21314C120.331 5.26281 120.157 5.32686 119.99 5.40466C119.463 5.66229 119.06 6.11772 118.867 6.67166C118.856 6.69738 118.852 6.72544 118.854 6.75336C118.856 6.78129 118.865 6.80822 118.881 6.83179C118.896 6.85537 118.916 6.87486 118.941 6.88856C118.965 6.90225 118.993 6.90973 119.021 6.91033ZM107.14 10.237C107.211 10.237 107.255 10.2045 107.305 10.1338C107.372 10.0273 107.45 9.92847 107.538 9.83918C107.737 9.66744 107.98 9.55334 108.239 9.50917C108.276 9.5006 108.311 9.48564 108.342 9.46497C108.371 9.44135 108.391 9.40835 108.398 9.37173C108.405 9.33511 108.399 9.2972 108.381 9.26461C108.359 9.22638 108.324 9.19699 108.283 9.18141C108.241 9.16584 108.196 9.16504 108.154 9.17916C107.892 9.23129 107.643 9.33658 107.423 9.48854C107.238 9.61067 107.09 9.78207 106.996 9.98355C106.98 10.0089 106.971 10.0381 106.97 10.0681C106.97 10.0981 106.977 10.1277 106.992 10.1537C107.007 10.1798 107.028 10.2013 107.055 10.216C107.081 10.2306 107.11 10.2379 107.14 10.237ZM117.527 10.3313C117.558 10.3275 117.587 10.3158 117.612 10.2972C117.637 10.2785 117.656 10.2537 117.668 10.2252C117.707 10.1547 117.758 10.0918 117.818 10.0395C117.909 9.96408 118.008 9.89886 118.113 9.84507C118.252 9.77435 118.408 9.72132 118.54 9.65944C118.563 9.65258 118.583 9.64116 118.601 9.6259C118.619 9.61065 118.633 9.59189 118.643 9.57083C118.653 9.54976 118.658 9.52685 118.659 9.50356C118.66 9.48026 118.655 9.45708 118.646 9.4355C118.639 9.41411 118.627 9.3945 118.612 9.37794C118.596 9.36137 118.578 9.34823 118.557 9.33935C118.536 9.33047 118.514 9.32605 118.491 9.32637C118.468 9.32669 118.446 9.33174 118.425 9.34121L118.319 9.37952C118.021 9.48068 117.745 9.63768 117.506 9.84213C117.415 9.91725 117.351 10.0211 117.326 10.1368C117.323 10.1636 117.325 10.1909 117.334 10.2164C117.343 10.242 117.358 10.2651 117.378 10.2838C117.397 10.3025 117.421 10.3163 117.447 10.324C117.473 10.3318 117.5 10.3332 117.527 10.3283V10.3313Z" fill="#333433"/>
<path d="M110.045 8.80627C111.089 8.84504 112.095 9.21094 112.921 9.85229C112.955 9.87292 112.981 9.90366 112.996 9.94015C113.012 9.97664 113.015 10.017 113.006 10.0556C113.002 10.088 112.987 10.1181 112.963 10.1406C112.94 10.1632 112.909 10.1769 112.877 10.1793C112.811 10.1779 112.748 10.1574 112.694 10.1204C112.363 9.87567 112 9.6774 111.615 9.53111C110.942 9.24883 110.211 9.12776 109.482 9.17753C109.329 9.17753 109.187 9.22173 109.028 9.2453C109.006 9.25186 108.982 9.25359 108.958 9.25035C108.934 9.24712 108.912 9.23899 108.892 9.22651C108.871 9.21403 108.854 9.19747 108.84 9.17787C108.827 9.15828 108.818 9.13608 108.813 9.11271C108.808 9.08956 108.807 9.0655 108.812 9.0421C108.816 9.01871 108.825 8.99652 108.839 8.97702C108.853 8.95751 108.87 8.94114 108.891 8.92897C108.911 8.91681 108.934 8.90913 108.958 8.90645C109.315 8.83036 109.68 8.79673 110.045 8.80627Z" fill="#343434"/>
<path d="M119.011 6.92981C118.982 6.92938 118.954 6.92182 118.929 6.90782C118.904 6.89382 118.883 6.87381 118.867 6.84959C118.852 6.82536 118.842 6.79768 118.84 6.76902C118.838 6.74036 118.843 6.71162 118.855 6.68537C119.051 6.119 119.462 5.6531 120.001 5.38946C120.173 5.31021 120.351 5.24424 120.534 5.19214C120.557 5.18306 120.582 5.17921 120.608 5.18085C120.633 5.18249 120.657 5.18958 120.679 5.20163C120.701 5.21368 120.721 5.23039 120.736 5.25062C120.751 5.27085 120.761 5.29411 120.766 5.31878C120.771 5.34284 120.771 5.36759 120.765 5.39151C120.76 5.41543 120.75 5.43802 120.736 5.45788C120.721 5.47774 120.703 5.49446 120.682 5.50701C120.661 5.51955 120.637 5.52766 120.613 5.53084C120.132 5.64136 119.711 5.93094 119.435 6.34077C119.343 6.48731 119.264 6.64095 119.197 6.80022C119.184 6.839 119.159 6.8726 119.125 6.89597C119.092 6.91933 119.052 6.93121 119.011 6.92981Z" fill="#343434"/>
<path d="M107.126 10.2483C107.097 10.2485 107.068 10.2409 107.042 10.2264C107.016 10.2119 106.995 10.1909 106.98 10.1656C106.965 10.1402 106.957 10.1114 106.957 10.082C106.957 10.0526 106.964 10.0236 106.979 9.99797C107.075 9.79144 107.227 9.61595 107.418 9.4914C107.642 9.33367 107.897 9.22526 108.166 9.17331C108.209 9.15789 108.256 9.15832 108.298 9.17452C108.341 9.19072 108.376 9.22163 108.398 9.26167C108.417 9.29487 108.423 9.33363 108.415 9.37092C108.408 9.40821 108.387 9.44155 108.357 9.46489C108.326 9.48722 108.291 9.50233 108.254 9.50907C107.988 9.554 107.739 9.67116 107.535 9.84776C107.446 9.93722 107.366 10.0359 107.297 10.1423C107.244 10.2159 107.2 10.2513 107.126 10.2483Z" fill="#343434"/>
<path d="M117.511 10.3454C117.484 10.3475 117.458 10.3435 117.433 10.3338C117.408 10.3241 117.386 10.3089 117.367 10.2894C117.349 10.2698 117.336 10.2464 117.328 10.221C117.32 10.1955 117.318 10.1685 117.322 10.1422C117.348 10.0261 117.413 9.92229 117.505 9.84765C117.749 9.63834 118.031 9.47742 118.336 9.37347L118.447 9.33519C118.469 9.32572 118.492 9.32074 118.515 9.32056C118.538 9.32038 118.561 9.32499 118.582 9.33412C118.603 9.34326 118.623 9.3567 118.638 9.37361C118.654 9.39052 118.667 9.41053 118.674 9.43237C118.683 9.45457 118.686 9.47822 118.685 9.50187C118.684 9.52552 118.678 9.54868 118.667 9.56992C118.657 9.59116 118.642 9.61003 118.624 9.62537C118.606 9.64072 118.585 9.65222 118.562 9.65916C118.418 9.72396 118.268 9.77991 118.126 9.8506C118.013 9.90539 117.907 9.97256 117.808 10.0509C117.747 10.1053 117.695 10.1701 117.655 10.2423C117.641 10.2699 117.621 10.2936 117.596 10.3116C117.571 10.3295 117.541 10.3411 117.511 10.3454Z" fill="#343434"/>
</svg>
