<svg width="87" height="57" viewBox="0 0 87 57" fill="none" xmlns="http://www.w3.org/2000/svg">
<path d="M19.4352 13.4865C20.0964 13.476 20.7425 13.6851 21.2722 14.081C21.8084 14.4832 22.1858 15.0613 22.3384 15.7139L30.9173 44.8035H22.2096L16.7183 23.2028C16.5974 22.6896 16.4904 22.1367 16.4012 21.5481C16.312 20.9595 16.2189 20.4066 16.1277 19.8914H14.903C14.8416 20.4066 14.7583 20.9575 14.6533 21.5481C14.5483 22.1386 14.4333 22.6896 14.3125 23.2028L8.82112 44.8035H0.101562L8.68041 15.7139C8.83222 15.0609 9.20983 14.4826 9.74658 14.081C10.2763 13.6851 10.9224 13.476 11.5836 13.4865H19.4352ZM23.7454 31.2308V37.3562H7.26943V31.2308H23.7454Z" fill="#F6F5EF"/>
<path d="M54.9137 13.4861V41.8028C54.9137 43.8004 53.9308 44.7992 51.9649 44.7992H48.1521C47.2445 44.7992 46.5713 44.5871 46.1327 44.1631C45.5994 43.6105 45.1488 42.9838 44.795 42.3022L37.1258 28.9712C36.7612 28.2142 36.3979 27.3971 36.0359 26.5198C35.6793 25.6622 35.3762 24.7833 35.1282 23.8881H34.72C34.8415 24.7667 34.94 25.6664 35.0153 26.5872C35.0906 27.5081 35.1282 28.3932 35.1282 29.2427V44.8091H27.1875V16.4864C27.1875 14.4902 28.1856 13.492 30.1819 13.492H33.9471C34.8548 13.492 35.52 13.7034 35.9427 14.1262C36.47 14.6892 36.9271 15.3141 37.3042 15.987L44.6563 28.8305C45.1078 29.6097 45.5166 30.4128 45.881 31.2363C46.2774 32.1136 46.6559 33.0384 47.0166 34.0107H47.4248C47.3336 33.0727 47.2577 32.1479 47.1969 31.2363C47.1361 30.3247 47.1064 29.4171 47.1077 28.5134L47.0621 13.492L54.9137 13.4861Z" fill="#F6F5EF"/>
<path d="M78.648 13.4861V19.9762H52.0078V13.4861H78.648ZM69.6173 13.4861V44.7972H61.0861V13.4861H69.6173Z" fill="#F6F5EF"/>
<path d="M0 50.977H4.0209C4.3016 50.9748 4.58218 50.9894 4.86115 51.0206C5.05456 51.0418 5.2448 51.0857 5.42792 51.1514C5.55661 51.1975 5.67364 51.2712 5.77076 51.3674C5.85113 51.4543 5.91136 51.5578 5.94713 51.6706C5.98691 51.7991 6.00891 51.9325 6.01253 52.067C6.01253 52.2116 6.01253 52.3702 6.01253 52.5446C6.01253 52.7189 6.01253 52.8933 6.00064 53.0459C5.99446 53.1879 5.96708 53.3282 5.91939 53.4621C5.8743 53.5867 5.80027 53.6987 5.70338 53.7891C5.58211 53.8972 5.43875 53.9777 5.28326 54.0249C5.05788 54.0973 4.82533 54.1452 4.58966 54.1676C4.24675 54.2041 3.90201 54.2207 3.55718 54.2171H0.669821V56.3277H0V50.977ZM0.669821 53.6523H3.56511C3.86237 53.6523 4.11206 53.6523 4.3142 53.6385C4.48315 53.6314 4.65137 53.6122 4.81755 53.581C4.92697 53.5627 5.0315 53.5222 5.12472 53.4621C5.19573 53.4129 5.25082 53.344 5.28326 53.2639C5.31957 53.1675 5.33965 53.0657 5.34271 52.9627C5.34271 52.8458 5.34271 52.7051 5.34271 52.5426C5.34271 52.3801 5.34271 52.2612 5.34271 52.1462C5.33985 52.0516 5.3197 51.9582 5.28326 51.8708C5.24965 51.7972 5.19433 51.7356 5.12472 51.6944C5.02973 51.641 4.92551 51.6061 4.81755 51.5914C4.65117 51.5631 4.48293 51.5472 4.3142 51.5438C4.11603 51.5438 3.86237 51.5339 3.56511 51.5339H0.669821V53.6523Z" fill="#F6F5EF"/>
<path d="M13.9202 50.9768H14.5901V56.3274H13.9202V53.8681H9.01549V56.3274H8.34766V50.9768H9.01549V53.3192H13.9202V50.9768Z" fill="#F6F5EF"/>
<path d="M17.3633 50.9768H18.0331V56.3274H17.3633V50.9768Z" fill="#F6F5EF"/>
<path d="M20.8047 56.3274V50.9768H21.4745V55.7706H25.7094V56.3274H20.8047Z" fill="#F6F5EF"/>
<path d="M32.2675 50.846C32.6132 50.8415 32.9586 50.8667 33.3 50.9213C33.5415 50.9576 33.7752 51.034 33.9916 51.1472C34.1615 51.2367 34.3055 51.3684 34.4097 51.5297C34.512 51.6955 34.5844 51.8779 34.6238 52.0687C34.6725 52.2995 34.6997 52.5344 34.705 52.7702C34.7129 53.0344 34.7169 53.3218 34.7169 53.6323C34.7169 53.9493 34.7169 54.2268 34.705 54.4963C34.6997 54.7321 34.6725 54.967 34.6238 55.1978C34.5844 55.3886 34.512 55.571 34.4097 55.7369C34.3055 55.8981 34.1615 56.0298 33.9916 56.1193C33.7752 56.2326 33.5415 56.3089 33.3 56.3452C32.9586 56.3999 32.6132 56.425 32.2675 56.4205H30.2541C29.9084 56.425 29.563 56.3999 29.2216 56.3452C28.9802 56.3086 28.7465 56.2323 28.53 56.1193C28.3604 56.0287 28.216 55.8973 28.1099 55.7369C28.0061 55.5716 27.933 55.389 27.8939 55.1978C27.8456 54.967 27.8197 54.7321 27.8166 54.4963C27.8166 54.2367 27.8047 53.9493 27.8047 53.6323C27.8047 53.3152 27.8047 53.0377 27.8166 52.7702C27.8197 52.5344 27.8456 52.2995 27.8939 52.0687C27.933 51.8775 28.0061 51.6949 28.1099 51.5297C28.216 51.3692 28.3604 51.2378 28.53 51.1472C28.7465 51.0343 28.9802 50.9579 29.2216 50.9213C29.563 50.8667 29.9084 50.8415 30.2541 50.846H32.2675ZM32.2675 55.8617C32.5628 55.8617 32.8125 55.8617 33.0146 55.8359C33.1867 55.8265 33.3564 55.7911 33.518 55.7309C33.6403 55.6853 33.7469 55.6055 33.8251 55.501C33.9046 55.3814 33.958 55.2463 33.9817 55.1047C34.0173 54.9044 34.0365 54.7016 34.0392 54.4983C34.0392 54.2565 34.0392 53.9692 34.0392 53.6342C34.0392 53.2993 34.0392 53.014 34.0392 52.7722C34.0365 52.5688 34.0173 52.366 33.9817 52.1658C33.9583 52.024 33.905 51.8889 33.8251 51.7695C33.7472 51.6655 33.6414 51.5858 33.52 51.5396C33.3591 51.4794 33.1901 51.4439 33.0186 51.4345C32.8204 51.4167 32.5648 51.4068 32.2675 51.4068H30.2541C29.9568 51.4068 29.7071 51.4167 29.503 51.4345C29.3309 51.4442 29.1613 51.4796 28.9997 51.5396C28.8779 51.5852 28.772 51.6651 28.6945 51.7695C28.6142 51.8886 28.5607 52.0239 28.5379 52.1658C28.5014 52.3659 28.4821 52.5688 28.4805 52.7722C28.4805 53.014 28.4805 53.3013 28.4805 53.6342C28.4805 53.9692 28.4805 54.2565 28.4805 54.4983C28.4831 54.7016 28.5024 54.9044 28.5379 55.1047C28.5628 55.2457 28.6153 55.3804 28.6925 55.501C28.77 55.6054 28.876 55.6852 28.9977 55.7309C29.1593 55.7909 29.3289 55.8263 29.501 55.8359C29.6992 55.8538 29.9548 55.8617 30.2521 55.8617H32.2675Z" fill="#F6F5EF"/>
<path d="M40.6397 53.3083C40.9554 53.305 41.2711 53.3202 41.585 53.3539C41.8103 53.3764 42.0327 53.4215 42.2489 53.4886C42.4048 53.5351 42.5507 53.6104 42.6789 53.7106C42.7811 53.7931 42.8654 53.8956 42.9266 54.0118C42.9857 54.1313 43.0239 54.2599 43.0396 54.3923C43.0577 54.5435 43.0663 54.6958 43.0654 54.8481C43.0664 55.0011 43.0518 55.1538 43.0218 55.3039C42.9678 55.5901 42.8034 55.8435 42.564 56.0094C42.4143 56.1121 42.2499 56.1916 42.0765 56.2452C41.844 56.3171 41.6051 56.3662 41.3631 56.3918C41.04 56.4284 40.7151 56.4456 40.39 56.4434H39.4983C39.2052 56.445 38.9121 56.4318 38.6204 56.4037C38.4013 56.3852 38.1844 56.3467 37.9723 56.2888C37.8131 56.2462 37.6614 56.1794 37.5225 56.0906C37.4102 56.0166 37.3139 55.921 37.2391 55.8092C37.1665 55.697 37.116 55.5718 37.0905 55.4406C37.0615 55.2891 37.0476 55.1351 37.0489 54.9809H37.7187C37.7106 55.1519 37.7411 55.3226 37.8079 55.4803C37.8724 55.604 37.9793 55.7004 38.1091 55.7517C38.284 55.819 38.4688 55.8572 38.656 55.8647C38.8839 55.8806 39.1634 55.8885 39.4983 55.8885H40.39C40.7147 55.8923 41.0392 55.8731 41.3611 55.831C41.5751 55.8065 41.7834 55.7462 41.9774 55.6527C42.1187 55.5854 42.2337 55.4732 42.3044 55.3336C42.371 55.182 42.4028 55.0175 42.3975 54.852C42.4025 54.6918 42.381 54.5318 42.3341 54.3784C42.289 54.25 42.1989 54.1423 42.0804 54.0752C41.9136 53.9892 41.7321 53.9354 41.5454 53.9167C41.2455 53.881 40.9437 53.8651 40.6417 53.8691H39.7222C39.314 53.8691 38.9632 53.8533 38.6719 53.8235C38.4241 53.8017 38.1787 53.7579 37.9387 53.6927C37.7699 53.6495 37.6097 53.5778 37.465 53.4807C37.3553 53.4041 37.2634 53.3047 37.1955 53.1894C37.1332 53.077 37.0923 52.954 37.0746 52.8267C37.0559 52.6828 37.0466 52.5379 37.0469 52.3927C37.0465 52.2404 37.0611 52.0884 37.0905 51.9389C37.1185 51.8031 37.1738 51.6743 37.253 51.5604C37.3411 51.4402 37.4514 51.338 37.578 51.2592C37.7418 51.1602 37.9195 51.0861 38.1051 51.0392C38.3591 50.9725 38.6183 50.9274 38.88 50.9045C39.1812 50.8747 39.5379 50.8589 39.9461 50.8589H40.614C40.9071 50.8567 41.2001 50.8692 41.4919 50.8965C41.7111 50.9141 41.928 50.9526 42.1399 51.0115C42.2996 51.0546 42.4519 51.1214 42.5917 51.2097C42.7054 51.2818 42.8026 51.377 42.8771 51.4891C42.9501 51.6004 43.0006 51.725 43.0257 51.8557C43.0547 52.0059 43.0686 52.1586 43.0673 52.3115H42.3975C42.4055 52.1437 42.375 51.9762 42.3083 51.822C42.2437 51.7 42.1376 51.6051 42.0091 51.5545C41.8327 51.488 41.6466 51.4505 41.4582 51.4435C41.2309 51.4276 40.9495 51.4197 40.614 51.4197H39.9461C39.5783 51.4161 39.2105 51.432 38.8443 51.4673C38.6105 51.4862 38.3808 51.5396 38.1626 51.6258C38.0159 51.6833 37.8929 51.7888 37.8138 51.925C37.7443 52.0723 37.711 52.234 37.7167 52.3967C37.7158 52.5002 37.7238 52.6037 37.7405 52.7058C37.7549 52.7923 37.7888 52.8743 37.8396 52.9456C37.8959 53.0188 37.9685 53.0778 38.0516 53.118C38.1659 53.1713 38.2864 53.2099 38.4103 53.233C38.5903 53.2669 38.7724 53.2881 38.9553 53.2964C39.1693 53.3103 39.4249 53.3162 39.7222 53.3162L40.6397 53.3083Z" fill="#F6F5EF"/>
<path d="M49.8515 50.8479C50.1972 50.8434 50.5426 50.8686 50.8839 50.9233C51.1254 50.9596 51.3592 51.0359 51.5756 51.1492C51.7454 51.2387 51.8894 51.3704 51.9937 51.5316C52.0976 51.6966 52.1701 51.8794 52.2077 52.0707C52.2565 52.3015 52.2836 52.5363 52.289 52.7722C52.2969 53.0364 52.3009 53.3238 52.3009 53.6342C52.3009 53.9513 52.3009 54.2288 52.289 54.4983C52.2836 54.7341 52.2565 54.969 52.2077 55.1998C52.1701 55.3911 52.0976 55.5738 51.9937 55.7388C51.8892 55.8993 51.7452 56.0303 51.5756 56.1193C51.3592 56.2326 51.1254 56.3089 50.8839 56.3452C50.5426 56.3999 50.1972 56.4251 49.8515 56.4205H47.838C47.4924 56.425 47.1469 56.3998 46.8056 56.3452C46.5642 56.3083 46.3306 56.232 46.114 56.1193C45.9443 56.0287 45.7999 55.8973 45.6938 55.7368C45.5909 55.5712 45.5178 55.3887 45.4778 55.1978C45.4305 54.9668 45.4047 54.732 45.4005 54.4963C45.4005 54.2367 45.3906 53.9493 45.3906 53.6323C45.3906 53.3152 45.3906 53.0377 45.4005 52.7702C45.4047 52.5345 45.4305 52.2997 45.4778 52.0687C45.5178 51.8778 45.5909 51.6953 45.6938 51.5297C45.7999 51.3692 45.9443 51.2378 46.114 51.1472C46.3306 51.0346 46.5642 50.9582 46.8056 50.9213C47.1469 50.8667 47.4924 50.8415 47.838 50.846L49.8515 50.8479ZM49.8515 55.8637C50.1467 55.8637 50.3964 55.8637 50.5986 55.8379C50.7707 55.8287 50.9405 55.7933 51.1019 55.7329C51.2242 55.6872 51.3308 55.6075 51.4091 55.503C51.4886 55.3834 51.5419 55.2483 51.5657 55.1067C51.6022 54.9066 51.6214 54.7037 51.6231 54.5003C51.6231 54.2585 51.633 53.9711 51.633 53.6362C51.633 53.3013 51.633 53.0159 51.6231 52.7742C51.6214 52.5708 51.6022 52.3679 51.5657 52.1678C51.5423 52.026 51.4889 51.8909 51.4091 51.7714C51.3311 51.6675 51.2253 51.5878 51.1039 51.5415C50.9431 51.4811 50.7741 51.4457 50.6025 51.4365C50.4044 51.4187 50.1487 51.4088 49.8515 51.4088H47.838C47.5408 51.4088 47.2911 51.4187 47.087 51.4365C46.9149 51.4462 46.7452 51.4816 46.5836 51.5415C46.4622 51.5878 46.3564 51.6675 46.2784 51.7714C46.1981 51.8906 46.1447 52.0259 46.1219 52.1678C46.0851 52.3678 46.0665 52.5708 46.0664 52.7742C46.0664 53.0159 46.0664 53.3033 46.0664 53.6362C46.0664 53.9691 46.0664 54.2585 46.0664 54.5003C46.0691 54.7036 46.0883 54.9064 46.1239 55.1067C46.1485 55.2481 46.2017 55.383 46.2804 55.503C46.3571 55.6073 46.4625 55.6872 46.5836 55.7329C46.7452 55.7929 46.9149 55.8283 47.087 55.8379C47.2851 55.8558 47.5408 55.8637 47.838 55.8637H49.8515Z" fill="#F6F5EF"/>
<path d="M54.8555 50.977H58.8744C59.1551 50.9749 59.4357 50.9894 59.7146 51.0206C59.908 51.0418 60.0983 51.0857 60.2814 51.1514C60.4101 51.1975 60.5271 51.2712 60.6242 51.3674C60.704 51.4548 60.7641 51.5581 60.8006 51.6706C60.8397 51.7992 60.861 51.9326 60.864 52.067C60.864 52.2116 60.8739 52.3702 60.8739 52.5445C60.8739 52.7189 60.8739 52.8933 60.8621 53.0459C60.8549 53.1878 60.8276 53.3279 60.7808 53.4621C60.7357 53.5866 60.6617 53.6987 60.5648 53.7891C60.4425 53.8968 60.2986 53.9772 60.1427 54.0249C59.918 54.0973 59.6861 54.1452 59.4511 54.1676C59.1075 54.2041 58.7621 54.2206 58.4166 54.2171H55.5253V56.3276H54.8555V50.977ZM55.5253 53.6523H58.4186C58.7159 53.6523 58.9675 53.6523 59.1697 53.6385C59.3386 53.6313 59.5068 53.6121 59.673 53.581C59.7824 53.5627 59.887 53.5222 59.9802 53.4621C60.0507 53.4124 60.1057 53.3436 60.1387 53.2639C60.175 53.1675 60.1951 53.0657 60.1982 52.9627C60.1982 52.8458 60.1982 52.7051 60.1982 52.5426C60.1982 52.3801 60.1982 52.2612 60.1982 52.1462C60.1953 52.0515 60.1752 51.9582 60.1387 51.8708C60.1051 51.7972 60.0498 51.7356 59.9802 51.6944C59.8852 51.641 59.781 51.6061 59.673 51.5913C59.5066 51.5632 59.3384 51.5473 59.1697 51.5438C58.9715 51.5438 58.7159 51.5339 58.4186 51.5339H55.5253V53.6523Z" fill="#F6F5EF"/>
<path d="M68.7739 50.9768H69.4417V56.3274H68.7739V53.8681H63.8612V56.3274H63.1914V50.9768H63.8612V53.3192H68.7739V50.9768Z" fill="#F6F5EF"/>
<path d="M71.9922 50.9768H72.884L75.3373 53.5966L77.7887 50.9768H78.6805L75.6722 54.098V56.3274H75.0024V54.0901L71.9922 50.9768Z" fill="#F6F5EF"/>
<path d="M78.313 8.83529C78.2178 8.88124 78.1137 8.90583 78.008 8.90733C77.9023 8.90883 77.7976 8.88721 77.7011 8.84398C77.6046 8.80075 77.5188 8.73695 77.4496 8.65706C77.3803 8.57717 77.3294 8.48311 77.3004 8.38147C77.3004 8.39733 77.2885 8.40724 77.2845 8.41714C77.2511 8.51989 77.2114 8.62049 77.1656 8.71837C77.1296 8.79387 77.1068 8.87497 77.0982 8.95815C77.0424 9.55388 76.8106 10.1195 76.4324 10.5832C76.1181 10.967 75.7127 11.2661 75.2532 11.4531C75.0001 11.5495 74.7314 11.5985 74.4606 11.5978C74.409 11.5978 74.3912 11.6156 74.3793 11.6632C74.2757 12.1139 74.0725 12.5357 73.7848 12.8978C73.6026 13.1355 73.3576 13.3174 73.0773 13.423C72.9324 13.4708 72.78 13.4923 72.6275 13.4864C72.6152 13.4844 72.6033 13.4811 72.5918 13.4765C72.6048 13.4686 72.6188 13.4626 72.6334 13.4586C72.8284 13.4193 73.0135 13.3414 73.1779 13.2294C73.3423 13.1174 73.4826 12.9737 73.5906 12.8067C73.8756 12.3942 74.0856 11.9346 74.2109 11.4492C74.2267 11.3957 74.2445 11.3798 74.298 11.3838C74.6039 11.4159 74.913 11.3992 75.2136 11.3342C75.6259 11.2388 75.9878 10.9929 76.2282 10.6446C76.4135 10.3708 76.5646 10.0753 76.6781 9.76472C76.7633 9.55267 76.8327 9.33468 76.908 9.11867V9.08895C76.908 9.08895 76.8941 9.08895 76.8901 9.08895C76.5618 9.42879 76.1407 9.66449 75.6793 9.76669C75.2487 9.87415 74.8019 9.90103 74.3615 9.84597C73.7256 9.7808 73.1143 9.56549 72.5779 9.21776C72.2004 8.97995 71.8819 8.65942 71.6465 8.28041C71.4466 7.96478 71.3484 7.5954 71.3651 7.22217C71.3848 6.83671 71.5481 6.47259 71.8229 6.20159C72.1494 5.8759 72.5618 5.64978 73.0119 5.5496C73.4794 5.43847 73.9639 5.41896 74.4388 5.49213C74.9727 5.56379 75.4868 5.74168 75.9508 6.0153C76.3925 6.26496 76.764 6.62215 77.0308 7.05373C77.1798 7.29433 77.2732 7.56514 77.3043 7.84642C77.3043 7.84642 77.3043 7.86425 77.3043 7.88803C77.3512 7.79005 77.4193 7.70369 77.5036 7.63516C77.5879 7.56663 77.6863 7.51763 77.7918 7.49169C77.8968 7.46464 78.0066 7.46201 78.1127 7.48399C78.2189 7.50598 78.3186 7.55199 78.4042 7.61851C78.3798 7.40333 78.4008 7.18542 78.4658 6.97885C78.5308 6.77227 78.6384 6.58161 78.7816 6.41917C78.9248 6.25672 79.1004 6.12609 79.2972 6.03571C79.494 5.94533 79.7076 5.8972 79.9241 5.89442L79.8766 5.83101C79.6932 5.59985 79.5681 5.32797 79.5119 5.03832C79.4877 4.90732 79.4877 4.77298 79.5119 4.64198C79.5298 4.53298 79.5278 4.42201 79.5437 4.31499C79.5747 4.1658 79.638 4.02518 79.729 3.90298C79.8201 3.78078 79.9367 3.67994 80.0708 3.60752C80.158 3.54807 80.2492 3.49258 80.3363 3.43114C80.5585 3.2868 80.821 3.21735 81.0854 3.23297C81.3561 3.2425 81.6237 3.29467 81.8781 3.38755C81.8894 3.39087 81.9013 3.39171 81.9129 3.39C81.9245 3.38828 81.9357 3.38407 81.9455 3.37764C82.3325 3.04574 82.6515 2.64195 82.8848 2.18861C83.0144 1.93717 83.0919 1.66217 83.1127 1.38007C83.1139 1.36521 83.118 1.35073 83.1248 1.33747C83.1316 1.3242 83.141 1.31241 83.1524 1.30278C83.6729 0.90808 84.2205 0.550489 84.7912 0.232656C84.9339 0.153388 85.0806 0.0800654 85.2252 0.00476012C85.2432 -0.00158671 85.2628 -0.00158671 85.2807 0.00476012C85.253 0.0305224 85.2272 0.0562827 85.1975 0.0800633C84.6694 0.535882 84.1032 0.945616 83.5051 1.30477C83.4312 1.336 83.3639 1.38107 83.3069 1.43754C83.2736 1.50709 83.254 1.58248 83.2495 1.65949C83.1705 1.95987 83.0361 2.24283 82.8531 2.4938C82.613 2.83092 82.3238 3.13018 81.995 3.3816L81.9514 3.41529C82.0783 3.47673 82.2031 3.53023 82.322 3.59563C82.4766 3.68283 82.6272 3.77795 82.7758 3.87307C82.8118 3.89748 82.8557 3.9074 82.8987 3.90082C83.268 3.84484 83.6105 3.67432 83.8777 3.41331C84.1213 3.18647 84.3226 2.91805 84.4722 2.62063C84.4783 2.60675 84.4879 2.5947 84.5 2.58567C84.5122 2.57663 84.5265 2.57092 84.5415 2.5691C84.9597 2.51163 85.3759 2.43831 85.794 2.39273C86.1765 2.35111 86.5589 2.33526 86.9414 2.30751C86.962 2.30503 86.9828 2.3092 87.0009 2.3194L86.9513 2.33724C86.6045 2.41651 86.2577 2.50172 85.9089 2.5691C85.5602 2.63648 85.146 2.69989 84.7635 2.75142C84.7185 2.75476 84.675 2.76895 84.6367 2.79276C84.5984 2.81657 84.5664 2.8493 84.5435 2.88816C84.3591 3.1671 84.1262 3.41075 83.8559 3.60752C83.5996 3.79637 83.2982 3.9146 82.9819 3.95036H82.9601L82.9998 3.98404C83.4624 4.34063 83.8401 4.79548 84.1056 5.31576C84.2326 5.56621 84.3246 5.83293 84.379 6.10845C84.4199 6.36022 84.3636 6.6181 84.2216 6.82998C84.0796 7.04186 83.8625 7.19195 83.6141 7.24992C83.2688 7.33141 82.9114 7.34888 82.5598 7.30144C82.0975 7.23775 81.6493 7.09638 81.2341 6.8833L81.1905 6.86546C81.267 7.16863 81.2433 7.48842 81.1231 7.77705C81.0065 8.06721 80.8048 8.31525 80.5444 8.48849L80.6871 8.70053C80.8522 8.93029 81.0387 9.14394 81.244 9.33865C81.3721 9.45919 81.5244 9.55104 81.6909 9.6081C81.8573 9.66517 82.0339 9.68613 82.2091 9.66959L82.433 9.64977C82.4533 9.648 82.4738 9.65141 82.4924 9.65968C82.7815 9.78695 83.041 9.97302 83.2542 10.206C83.4675 10.4391 83.6298 10.714 83.731 11.0132C83.7851 11.1774 83.8099 11.3497 83.8044 11.5225C83.8041 11.5271 83.8029 11.5315 83.8008 11.5356C83.7988 11.5397 83.796 11.5433 83.7925 11.5463C83.7844 11.5301 83.7771 11.5136 83.7707 11.4967C83.5255 10.8112 83.0591 10.2269 82.4449 9.83605C82.4283 9.82549 82.409 9.81998 82.3894 9.8202C81.8915 9.783 81.4125 9.61331 81.0022 9.32874C80.759 9.14565 80.5694 8.90064 80.4533 8.61928L80.4354 8.57965C79.7973 8.86898 79.2266 8.79367 78.7312 8.2705C78.7312 8.2705 78.7312 8.29032 78.7312 8.30221C78.7059 8.45929 78.6292 8.60356 78.5132 8.71242C78.4983 8.7273 78.4892 8.74696 78.4874 8.76791C78.5067 9.15481 78.5692 9.53834 78.6737 9.91136C78.6965 9.98206 78.7299 10.0489 78.7728 10.1095C78.871 10.2672 78.9276 10.4472 78.9373 10.6327C78.9592 10.9837 78.9312 11.336 78.854 11.6791C78.7965 11.9961 78.7331 12.3112 78.6796 12.6303C78.6489 12.8976 78.6489 13.1675 78.6796 13.4349C78.6806 13.4494 78.6806 13.4639 78.6796 13.4784H78.6658C78.642 13.4269 78.6063 13.1515 78.5865 13.098C78.512 12.8762 78.4843 12.6413 78.5052 12.4083C78.5364 12.0343 78.6028 11.6641 78.7034 11.3025C78.751 11.1044 78.8005 10.9062 78.8322 10.6961C78.8526 10.5958 78.8488 10.4922 78.8212 10.3936C78.7937 10.2951 78.7431 10.2045 78.6737 10.1294C78.4548 9.88394 78.3341 9.56641 78.3348 9.23758C78.309 9.11075 78.313 8.97401 78.313 8.83529ZM73.975 5.7557C73.7355 5.74962 73.4961 5.77157 73.2616 5.8211C73.2462 5.82294 73.2313 5.82799 73.2179 5.83595C73.2046 5.84391 73.193 5.85459 73.184 5.8673C73.1751 5.88 73.1689 5.89446 73.1659 5.90971C73.1628 5.92497 73.163 5.94069 73.1665 5.95586C73.1695 5.97114 73.1756 5.98565 73.1844 5.9985C73.1932 6.01136 73.2045 6.02228 73.2177 6.03062C73.2309 6.03896 73.2456 6.04454 73.261 6.04702C73.2764 6.0495 73.2921 6.04882 73.3072 6.04503C73.4063 6.02918 73.5054 6.00738 73.6064 5.99945C74.0792 5.96219 74.5541 6.03547 74.9936 6.21348C75.2704 6.32199 75.5327 6.46444 75.7744 6.63757C75.8092 6.66235 75.8506 6.67615 75.8933 6.6772C75.9147 6.67554 75.9349 6.66655 75.9504 6.65175C75.9659 6.63694 75.9759 6.61723 75.9785 6.59595C75.9846 6.57058 75.9822 6.54395 75.9719 6.52002C75.9615 6.49609 75.9437 6.47615 75.9211 6.46317C75.3587 6.03623 74.6803 5.78959 73.975 5.7557ZM80.0312 4.47947C80.0569 4.47935 80.0819 4.47103 80.1026 4.4557C80.1233 4.44037 80.1385 4.41885 80.1461 4.39426C80.1907 4.2901 80.243 4.18942 80.3027 4.09304C80.4855 3.82238 80.7648 3.63171 81.0834 3.55996C81.0996 3.55837 81.1152 3.55339 81.1293 3.54534C81.1433 3.53729 81.1555 3.52635 81.1651 3.51325C81.1746 3.50015 81.1813 3.48518 81.1846 3.46932C81.188 3.45346 81.1879 3.43708 81.1845 3.42124C81.1813 3.40495 81.1746 3.38957 81.1648 3.37619C81.155 3.3628 81.1423 3.35175 81.1278 3.3438C81.1132 3.33586 81.097 3.33122 81.0805 3.33021C81.0639 3.32921 81.0473 3.33188 81.0319 3.33801C80.9124 3.37142 80.7957 3.4145 80.6831 3.46682C80.3289 3.6401 80.0575 3.9464 79.9281 4.31896C79.9206 4.33625 79.9175 4.35512 79.9191 4.37391C79.9206 4.39269 79.9267 4.4108 79.9369 4.42665C79.9471 4.44251 79.961 4.45562 79.9774 4.46483C79.9939 4.47404 80.0123 4.47907 80.0312 4.47947ZM72.0409 6.71683C72.0884 6.71683 72.1182 6.69503 72.1518 6.64747C72.1965 6.57582 72.249 6.50935 72.3084 6.4493C72.4425 6.3338 72.6056 6.25706 72.7801 6.22735C72.8047 6.22159 72.8282 6.21153 72.8494 6.19763C72.8688 6.18174 72.882 6.15954 72.8867 6.13492C72.8914 6.11029 72.8874 6.08479 72.8752 6.06287C72.8603 6.03716 72.8369 6.01739 72.8091 6.00692C72.7813 5.99644 72.7507 5.99591 72.7226 6.0054C72.5463 6.04046 72.379 6.11127 72.2311 6.21348C72.1063 6.29561 72.0068 6.41089 71.9438 6.5464C71.933 6.56343 71.927 6.58308 71.9265 6.60325C71.926 6.62341 71.931 6.64333 71.941 6.66085C71.951 6.67838 71.9656 6.69285 71.9832 6.70271C72.0008 6.71258 72.0207 6.71746 72.0409 6.71683ZM79.0264 6.78025C79.0471 6.77775 79.0669 6.76985 79.0836 6.75732C79.1002 6.7448 79.1134 6.7281 79.1216 6.70891C79.1474 6.66149 79.1816 6.61918 79.2226 6.58406C79.2837 6.53331 79.3501 6.48944 79.4208 6.45326C79.5139 6.4057 79.619 6.37004 79.7081 6.32842C79.7231 6.3238 79.737 6.31612 79.7488 6.30586C79.7607 6.2956 79.7703 6.28299 79.777 6.26882C79.7837 6.25465 79.7874 6.23924 79.7878 6.22358C79.7882 6.20791 79.7854 6.19232 79.7795 6.17781C79.7745 6.16342 79.7666 6.15023 79.7562 6.13909C79.7458 6.12795 79.7332 6.11911 79.7192 6.11314C79.7052 6.10716 79.6901 6.10419 79.6749 6.10441C79.6597 6.10462 79.6447 6.10802 79.6309 6.11439L79.5595 6.14015C79.3591 6.20819 79.1735 6.31379 79.0126 6.45128C78.9511 6.50181 78.9085 6.57165 78.8917 6.64946C78.8892 6.66749 78.891 6.68585 78.897 6.70304C78.903 6.72023 78.9129 6.73575 78.9261 6.74833C78.9393 6.76091 78.9552 6.77018 78.9727 6.77539C78.9901 6.78059 79.0085 6.78158 79.0264 6.77827V6.78025Z" fill="#F6F5EF"/>
<path d="M73.9952 5.75277C74.6974 5.77884 75.3736 6.02482 75.9285 6.45597C75.9512 6.46984 75.969 6.49051 75.9793 6.51504C75.9896 6.53957 75.9919 6.56672 75.9859 6.59264C75.9833 6.61445 75.9731 6.63465 75.9572 6.64981C75.9413 6.66498 75.9207 6.67418 75.8988 6.67584C75.8549 6.67486 75.8122 6.66109 75.776 6.63622C75.5535 6.47169 75.3096 6.3384 75.051 6.24006C74.598 6.05029 74.1069 5.9689 73.6169 6.00236C73.5139 6.00236 73.4188 6.03207 73.3118 6.04791C73.2964 6.05233 73.2803 6.05349 73.2645 6.05131C73.2486 6.04914 73.2334 6.04368 73.2198 6.03529C73.2062 6.0269 73.1945 6.01576 73.1854 6.00259C73.1764 5.98941 73.1702 5.97449 73.1672 5.95878C73.1635 5.94322 73.1631 5.92704 73.166 5.91131C73.169 5.89559 73.1753 5.88067 73.1845 5.86756C73.1936 5.85445 73.2055 5.84344 73.2193 5.83526C73.233 5.82708 73.2484 5.82192 73.2643 5.82012C73.5044 5.76897 73.7498 5.74636 73.9952 5.75277Z" fill="#343434"/>
<path d="M80.0292 4.49961C80.0099 4.49931 79.9909 4.49423 79.974 4.48481C79.9572 4.47538 79.9429 4.46192 79.9325 4.44561C79.922 4.42931 79.9158 4.41068 79.9144 4.39139C79.9129 4.3721 79.9163 4.35276 79.9242 4.33509C80.0559 3.95391 80.3331 3.64035 80.6953 3.46291C80.8113 3.40957 80.9312 3.36518 81.054 3.33011C81.0699 3.324 81.0868 3.32141 81.1038 3.32251C81.1207 3.32362 81.1372 3.32839 81.1521 3.3365C81.167 3.34461 81.1799 3.35586 81.19 3.36947C81.2001 3.38309 81.2072 3.39874 81.2106 3.41534C81.2137 3.43154 81.2135 3.44819 81.21 3.46429C81.2064 3.48039 81.1996 3.49559 81.1899 3.50896C81.1803 3.52233 81.168 3.53358 81.1538 3.54203C81.1397 3.55047 81.1239 3.55593 81.1076 3.55806C80.7836 3.63245 80.5001 3.82734 80.3147 4.10317C80.253 4.20179 80.1993 4.3052 80.1541 4.41239C80.1455 4.43849 80.1288 4.4611 80.1062 4.47683C80.0837 4.49255 80.0567 4.50055 80.0292 4.49961Z" fill="#343434"/>
<path d="M72.0356 6.71912C72.0158 6.71924 71.9963 6.71416 71.9791 6.70439C71.9619 6.69461 71.9475 6.68048 71.9375 6.66342C71.9274 6.64636 71.9221 6.62696 71.9219 6.60716C71.9217 6.58737 71.9267 6.56788 71.9364 6.55063C72.0011 6.41163 72.1034 6.29352 72.2318 6.2097C72.3826 6.10354 72.5542 6.03058 72.7353 5.99561C72.7642 5.98524 72.7958 5.98553 72.8246 5.99643C72.8533 6.00733 72.8771 6.02814 72.8919 6.05508C72.9044 6.07743 72.9084 6.10352 72.9033 6.12861C72.8983 6.15371 72.8843 6.17615 72.8641 6.19186C72.8435 6.20689 72.8198 6.21705 72.7947 6.22159C72.6157 6.25183 72.4484 6.33068 72.3111 6.44954C72.2507 6.50975 72.1969 6.57619 72.1505 6.64776C72.1148 6.69732 72.0851 6.7211 72.0356 6.71912Z" fill="#343434"/>
<path d="M79.0189 6.79594C79.001 6.79735 78.983 6.79469 78.9663 6.78816C78.9496 6.78163 78.9346 6.77141 78.9224 6.75825C78.9102 6.7451 78.9011 6.72935 78.8958 6.71219C78.8906 6.69503 78.8893 6.6769 78.892 6.65917C78.9093 6.58107 78.9527 6.51118 79.0149 6.46095C79.1793 6.32008 79.369 6.21178 79.5739 6.14182L79.6492 6.11605C79.6635 6.10968 79.6789 6.10633 79.6945 6.1062C79.7101 6.10608 79.7255 6.10919 79.7399 6.11533C79.7542 6.12148 79.7671 6.13053 79.7778 6.14191C79.7885 6.15329 79.7967 6.16675 79.8019 6.18146C79.8074 6.19639 79.8099 6.21231 79.8091 6.22823C79.8082 6.24415 79.8042 6.25973 79.7971 6.27403C79.7901 6.28832 79.7802 6.30102 79.768 6.31135C79.7559 6.32168 79.7418 6.32942 79.7265 6.33409C79.6294 6.3777 79.5283 6.41536 79.4332 6.46293C79.3571 6.49981 79.2852 6.54501 79.2191 6.59772C79.1775 6.63434 79.1426 6.67794 79.116 6.72656C79.1066 6.7451 79.0929 6.7611 79.076 6.77318C79.0591 6.78526 79.0395 6.79307 79.0189 6.79594Z" fill="#343434"/>
</svg>
