<svg width="356" height="391" viewBox="0 0 356 391" fill="none" xmlns="http://www.w3.org/2000/svg">
<path d="M332.5 267C216.033 293.333 -72.6774 370.8 18.1823 390" stroke="#F6F5EF"/>
<path d="M333.388 266.661C231.685 293.403 -20.101 370.657 60.3075 385.543" stroke="#F6F5EF"/>
<path d="M220.5 100.5C230.1 80.1 247.167 72.3333 254.5 71L230.5 138.5H196C184 138.5 166 116.5 178.5 100.5C188.5 87.7 210.667 95.1667 220.5 100.5Z" fill="#F6F5EF" stroke="#F6F5EF"/>
<path d="M347.496 316.5L327.996 300.5L305.498 332.5L308.998 334L304.496 345.5C308.999 362.5 304.497 381.831 312.496 372.5C318.497 365.5 329.831 348.167 331.998 339L327.996 320L339.996 328L347.496 316.5Z" fill="#F6F5EF" stroke="#F6F5EF"/>
<path d="M230.001 254C228.801 246.4 233.501 211.167 236.001 194.5L284.5 166C280.667 188.833 273.9 236.1 277.5 242.5C281.1 248.9 315.667 278.5 332.5 292.5L300 341C277.167 315.167 231.201 261.6 230.001 254Z" fill="#333433" stroke="#F6F5EF"/>
<path d="M251.942 47.675C251.946 50.499 247.476 52.3225 247.999 53.4996C249.041 55.054 249.5 55 251 55" stroke="#F6F5EF" stroke-width="0.614677" stroke-linecap="round"/>
<path d="M254.058 54.9929C253.461 56.4391 251.454 59.0655 248.198 58.0018" stroke="#F6F5EF" stroke-width="0.614677" stroke-linecap="round"/>
<path d="M245.379 44L260.019 48.6281L269 52" stroke="#F6F5EF" stroke-width="0.614677" stroke-linecap="round"/>
<path d="M245.714 44.2195C244.78 45.7937 243.605 49.1762 246.374 50.1121C249.144 51.048 251.14 47.6389 251.793 45.8173" stroke="#F6F5EF" stroke-width="0.614677" stroke-linecap="round"/>
<path d="M254.004 46.7912C253.111 48.3761 251.975 51.7428 254.575 52.5303C257.826 53.5147 259.175 50.3599 260.083 48.389" stroke="#F6F5EF" stroke-width="0.614677" stroke-linecap="round"/>
<path d="M255.406 49.2C255.844 48.7333 256.812 48.24 257.188 50L255.406 49.2Z" fill="#F6F5EF"/>
<path d="M249.594 47.4L248.188 46.8C248.188 46.5333 248.375 46 249.125 46C249.875 46 249.75 46.9333 249.594 47.4Z" fill="#F6F5EF"/>
<path d="M255.406 49.2C255.844 48.7333 256.812 48.24 257.188 50L255.406 49.2Z" stroke="#F6F5EF" stroke-width="0.614677" stroke-linecap="round"/>
<path d="M249.594 47.4L248.188 46.8C248.188 46.5333 248.375 46 249.125 46C249.875 46 249.75 46.9333 249.594 47.4Z" stroke="#F6F5EF" stroke-width="0.614677" stroke-linecap="round"/>
<path d="M225.489 377C233.502 371.5 248.583 356.667 260.916 353H294.416V381H280.916V369L262.416 381C248.583 383.167 218.493 381.802 225.489 377Z" fill="#F6F5EF" stroke="#F6F5EF"/>
<path d="M311.5 353L307.5 166H273.5C267.9 174.4 255.833 185.5 250.5 190L254.5 353H311.5Z" fill="#333433" stroke="#F6F5EF"/>
<path d="M208.498 172C204.498 167 195.298 158 190.498 162C184.498 167 202.998 175.5 198.498 178.5C193.998 181.5 174.999 162 173.499 167C172.299 171 173.666 173.333 174.499 174C173.333 174.833 171.699 177.7 174.499 182.5C178 188.5 202 201.5 215 190" stroke="#F6F5EF"/>
<path d="M174.5 174C179 177.333 189.2 184.3 194 185.5" stroke="#F6F5EF"/>
<path d="M305 117C298.6 91.8 284.666 72.5 274.499 69C262.499 77.4 254.833 76.1667 252.5 74.5C247.333 80.3333 236.099 97 232.499 117C228.899 137 230.999 158 232.499 166H312.5C313 158.167 311.4 142.2 305 117Z" fill="#333433" stroke="#F6F5EF"/>
<path d="M267.997 60.5L274.497 69C270 72 262 77 255 75.5C254.5 75 252.297 72.2 257.497 67" stroke="#F6F5EF"/>
<path d="M332.499 22.5C324.499 26.9 324.166 33.6667 324.999 36.5L328 40.5C328.667 38.5 331.1 34 335.5 32C341 29.5 352 36.5 351 22.5C350.2 11.3 345 7.5 342.5 7C342.5 10.3333 340.499 18.1 332.499 22.5Z" fill="#F6F5EF" stroke="#F6F5EF"/>
<path d="M324.998 37.0001C332.998 45.0001 326.665 46.6668 322.498 46.5001L319.498 43.0001C317.998 37.6668 316.998 29.0001 324.998 37.0001Z" fill="#F6F5EF" stroke="#F6F5EF"/>
<path d="M311.5 49.5001C305.1 46.7001 304.5 52.3335 305 55.5001C304.667 56.6667 304.2 59.1 305 59.5C305.8 59.9 309.667 60.6667 311.5 61C316 62.5 319.5 53.0001 311.5 49.5001Z" fill="#F6F5EF" stroke="#F6F5EF"/>
<path d="M315.998 41.9998C310.398 41.5998 312.332 47.4998 313.998 50.4998L315.998 53.5C317.166 53.5 320 53.3 322 52.5C324.5 51.5 322.998 42.4998 315.998 41.9998Z" fill="#F6F5EF" stroke="#F6F5EF"/>
<path d="M304.501 55C300.901 49 294.001 53.8334 291.001 57C286.501 56.3334 279.601 56.5 288.001 62.5C298.501 70 309.001 62.5 304.501 55Z" fill="#F6F5EF" stroke="#F6F5EF"/>
<path d="M254.001 37C249.507 41.0977 242.769 49.9548 244.364 58.2335C245.253 62.8502 249.492 66.283 254.177 66.6809C259.844 67.1621 267.087 64.5957 272.5 53.5" stroke="#F6F5EF"/>
<path d="M290.501 60.5C283.301 69.3 272.501 64.1666 268.001 60.5L269.228 56.4089C269.408 55.8062 269.5 55.1766 269.5 54.5474C269.5 52.6039 268.728 50.7279 267.354 49.3536C266.789 48.7895 266.119 48.3373 265.396 48.0004C256.486 43.8502 256.264 40.7059 254.5 37.5L247.001 45.5C245.001 31.5 253.834 31.6666 258.501 33.5C259.668 32.5 264.101 31.1 272.501 33.5C283.001 36.5 278.001 47.5 281.001 47.5C284.001 47.5 299.501 49.5 290.501 60.5Z" fill="#F6F5EF"/>
<path d="M282.498 157C293.698 147 297.165 123.5 297.498 113C298.729 101 288 81.0002 271.5 90.5002C258.3 98.1002 254.333 119 254 128.5C252.666 130.667 248.298 135.6 241.498 138C232.998 141 178.498 168.5 213.498 189C248.498 209.5 268.498 169.5 282.498 157Z" fill="#F6F5EF" stroke="#333433"/>
<circle cx="337.143" cy="103.142" r="13.5" transform="rotate(21.3957 337.143 103.142)" stroke="#F6F5EF"/>
<path d="M337.693 107.224C337.487 107.143 337.255 107.245 337.174 107.45C337.094 107.656 337.195 107.888 337.401 107.969L337.693 107.224ZM337.401 107.969L341.125 109.428L341.417 108.683L337.693 107.224L337.401 107.969Z" fill="#F6F5EF"/>
<path d="M338.787 104.431C338.581 104.35 338.349 104.452 338.268 104.657C338.188 104.863 338.289 105.095 338.495 105.176L338.787 104.431ZM338.495 105.176L343.15 107L343.442 106.255L338.787 104.431L338.495 105.176Z" fill="#F6F5EF"/>
<path d="M334.148 99.8213L331.23 107.27" stroke="#F6F5EF" stroke-width="0.8"/>
<path d="M328.848 105.124L330.93 99.811C331.131 99.2968 331.711 99.0433 332.226 99.2448L334.3 100.057C334.701 100.215 335.162 100.097 335.421 99.7532C337.982 96.3487 336.817 94.6176 338.482 95.612C340.291 96.6922 339.905 98.4302 339.193 99.8915C338.835 100.626 339.358 101.718 340.118 102.017C340.747 102.265 341.494 102.642 342.325 103.202C344.89 104.93 342.21 108.999 340.257 110.271C336.922 112.442 332.756 108.401 329.327 106.422C328.874 106.161 328.657 105.611 328.848 105.124Z" stroke="#F6F5EF" stroke-width="0.8"/>
<circle cx="210" cy="21" r="13.5" stroke="#F6F5EF"/>
<path d="M212 24.6C211.779 24.6 211.6 24.7791 211.6 25C211.6 25.2209 211.779 25.4 212 25.4V24.6ZM212 25.4H216V24.6H212V25.4Z" fill="#F6F5EF"/>
<path d="M212 21.6C211.779 21.6 211.6 21.7791 211.6 22C211.6 22.2209 211.779 22.4 212 22.4V21.6ZM212 22.4H217V21.6H212V22.4Z" fill="#F6F5EF"/>
<path d="M206 19V27" stroke="#F6F5EF" stroke-width="0.8"/>
<path d="M203 25.8711V20.1648C203 19.6125 203.448 19.1648 204 19.1648H206.228C206.658 19.1648 207.045 18.8875 207.161 18.4726C208.304 14.3683 206.587 13.1815 208.5 13.5C210.578 13.846 210.853 15.6047 210.723 17.2251C210.658 18.0395 211.543 18.866 212.36 18.8673C213.036 18.8685 213.869 18.9468 214.846 19.1648C217.866 19.8384 216.855 24.6046 215.5 26.5011C213.187 29.7392 207.834 27.4962 203.919 26.9053C203.402 26.8273 203 26.3941 203 25.8711Z" stroke="#F6F5EF" stroke-width="0.8"/>
<path d="M324.499 35.5C322.499 33 320.399 26.2 327.999 19C335.599 11.8 335.166 4 334 1" stroke="#F6F5EF"/>
<path d="M258 33.9999C258.667 30.9999 263.1 26.3999 275.5 31.9999C291 38.9999 278 45 288 46" stroke="#F6F5EF"/>
<path d="M249 358.5C251.333 358.667 256.3 360.1 257.5 364.5" stroke="#333433"/>
<path d="M245 361C247.333 361.167 252.3 362.6 253.5 367" stroke="#333433"/>
<path d="M279 100L283.33 107.5H274.67L279 100Z" fill="#333433"/>
<path d="M290 123L294.33 130.5H285.67L290 123Z" fill="#333433"/>
<path d="M265 123L269.33 130.5H260.67L265 123Z" fill="#333433"/>
<path d="M239 81L243.33 88.5H234.67L239 81Z" fill="#333433"/>
<path d="M226 100L230.33 107.5H221.67L226 100Z" fill="#333433"/>
<path d="M226 126L230.33 133.5H221.67L226 126Z" fill="#333433"/>
<path d="M199 123L203.33 130.5H194.67L199 123Z" fill="#333433"/>
<path d="M199 100L203.33 107.5H194.67L199 100Z" fill="#333433"/>
<path d="M183 108L187.33 115.5H178.67L183 108Z" fill="#333433"/>
<path d="M275 148L279.33 155.5H270.67L275 148Z" fill="#333433"/>
<path d="M245 147L249.33 154.5H240.67L245 147Z" fill="#333433"/>
<path d="M219 166L223.33 173.5H214.67L219 166Z" fill="#333433"/>
<path d="M249 170L253.33 177.5H244.67L249 170Z" fill="#333433"/>
<rect x="45.5" y="111.5" width="180" height="74" rx="37" fill="#333433" stroke="#F6F5EF"/>
<rect x="144" y="131" width="52" height="10" rx="5" fill="#F6F5EF"/>
<path d="M144 147H196" stroke="#F6F5EF" stroke-linecap="round"/>
<path d="M144 153H196" stroke="#F6F5EF" stroke-linecap="round"/>
<path d="M144 159H196" stroke="#F6F5EF" stroke-linecap="round"/>
<path d="M144 165H196" stroke="#F6F5EF" stroke-linecap="round"/>
<rect x="58.5" y="128.5" width="75" height="43" rx="21.5" fill="#333433" stroke="#F6F5EF"/>
<circle cx="96.5" cy="141.5" r="5.5" fill="#F6F5EF"/>
<path d="M97.5 160.5L59 154C61.8 166.4 72.8333 170.833 78 171.5H113C127.8 170.7 132.5 159.5 133 154L97.5 160.5Z" fill="#F6F5EF"/>
<path d="M157.638 123.068C162.038 124.668 173.974 115.833 178.141 112.5V103.568C177.306 101.401 171.738 97.9678 156.14 101.568C140.541 105.168 139.974 112.068 141.64 115.068H163.638C159.804 117.068 153.238 121.468 157.638 123.068Z" fill="#F6F5EF" stroke="#333433"/>
<path d="M141.141 113.068C142.974 111.401 149.041 107.968 158.641 107.568" stroke="#333433"/>
<circle cx="169" cy="82" r="13.5" stroke="#F6F5EF"/>
<path d="M161.492 78.3092C163.49 75.3094 167.159 76.9759 168.492 78.3092C169.49 76.3094 174.49 74.3095 175.992 78.3092C177.565 82.4956 172.155 87.4761 169.488 88.8096C165.822 86.9762 159.134 81.8481 161.492 78.3092Z" fill="#F6F5EF"/>
</svg>
