<svg width="32" height="32" viewBox="0 0 32 32" fill="none" xmlns="http://www.w3.org/2000/svg">
<path d="M16.2035 31.4501C24.8871 31.4501 31.9265 24.4106 31.9265 15.727C31.9265 7.04346 24.8871 0.00402832 16.2035 0.00402832C7.5199 0.00402832 0.480469 7.04346 0.480469 15.727C0.480469 24.4106 7.5199 31.4501 16.2035 31.4501Z" fill="#333433"/>
<path d="M16.2028 7.61087C18.8466 7.61087 19.1587 7.62019 20.2022 7.6691C21.1666 7.71336 21.6907 7.87408 22.0401 8.00919C22.5013 8.18854 22.8321 8.40284 23.1791 8.74991C23.5262 9.09698 23.7405 9.42542 23.9199 9.88896C24.055 10.2384 24.2157 10.7625 24.2599 11.7268C24.3065 12.7703 24.3182 13.0848 24.3182 15.7263C24.3182 18.3677 24.3089 18.6822 24.2599 19.7257C24.2157 20.6901 24.055 21.2142 23.9199 21.5636C23.7405 22.0248 23.5262 22.3556 23.1791 22.7026C22.8321 23.0497 22.5036 23.264 22.0401 23.4434C21.6907 23.5785 21.1666 23.7392 20.2022 23.7834C19.1587 23.83 18.8466 23.8417 16.2028 23.8417C13.559 23.8417 13.2469 23.8324 12.2033 23.7834C11.239 23.7392 10.7149 23.5785 10.3655 23.4434C9.90426 23.264 9.5735 23.0497 9.22643 22.7026C8.87935 22.3556 8.66506 22.0271 8.4857 21.5636C8.3506 21.2142 8.18987 20.6901 8.14561 19.7257C8.09903 18.6822 8.08738 18.3677 8.08738 15.7263C8.08738 13.0848 8.0967 12.7703 8.14561 11.7268C8.18987 10.7625 8.3506 10.2384 8.4857 9.88896C8.66506 9.42775 8.87935 9.09698 9.22643 8.74991C9.5735 8.40284 9.90193 8.18854 10.3655 8.00919C10.7149 7.87408 11.239 7.71336 12.2033 7.6691C13.2469 7.62252 13.5613 7.61087 16.2028 7.61087ZM16.2028 5.8266C13.5147 5.8266 13.177 5.83825 12.1218 5.88716C11.0689 5.93608 10.3492 6.10146 9.71791 6.34837C9.06803 6.60227 8.51598 6.94002 7.96393 7.48974C7.4142 8.03947 7.07412 8.59152 6.82255 9.24373C6.57797 9.87265 6.41026 10.5924 6.36134 11.6476C6.31243 12.7028 6.30078 13.0405 6.30078 15.7286C6.30078 18.4167 6.31243 18.7544 6.36134 19.8096C6.41026 20.8625 6.57564 21.5822 6.82255 22.2135C7.07645 22.8634 7.4142 23.4154 7.96393 23.9675C8.51365 24.5172 9.0657 24.8573 9.71791 25.1088C10.3468 25.3534 11.0666 25.5211 12.1218 25.57C13.177 25.619 13.5147 25.6306 16.2028 25.6306C18.8908 25.6306 19.2286 25.619 20.2838 25.57C21.3366 25.5211 22.0564 25.3557 22.6876 25.1088C23.3375 24.8549 23.8896 24.5172 24.4416 23.9675C24.9914 23.4177 25.3314 22.8657 25.583 22.2135C25.8276 21.5845 25.9953 20.8648 26.0442 19.8096C26.0931 18.7544 26.1048 18.4167 26.1048 15.7286C26.1048 13.0405 26.0931 12.7028 26.0442 11.6476C25.9953 10.5947 25.8299 9.87498 25.583 9.24373C25.3291 8.59385 24.9914 8.0418 24.4416 7.48974C23.8919 6.94002 23.3399 6.59994 22.6876 6.34837C22.0587 6.10379 21.339 5.93608 20.2838 5.88716C19.2286 5.83825 18.8908 5.8266 16.2028 5.8266Z" fill="#5CD3F2"/>
<path d="M16.1998 10.642C13.3929 10.642 11.1172 12.9178 11.1172 15.7246C11.1172 18.5315 13.3929 20.8072 16.1998 20.8072C19.0066 20.8072 21.2824 18.5315 21.2824 15.7246C21.2824 12.9178 19.0066 10.642 16.1998 10.642ZM16.1998 19.0253C14.3783 19.0253 12.8991 17.5485 12.8991 15.7246C12.8991 13.9008 14.3759 12.424 16.1998 12.424C18.0237 12.424 19.5005 13.9008 19.5005 15.7246C19.5005 17.5485 18.0237 19.0253 16.1998 19.0253Z" fill="#5CD3F2"/>
<path d="M21.4848 11.6289C22.1409 11.6289 22.6728 11.097 22.6728 10.4409C22.6728 9.7848 22.1409 9.25293 21.4848 9.25293C20.8287 9.25293 20.2969 9.7848 20.2969 10.4409C20.2969 11.097 20.8287 11.6289 21.4848 11.6289Z" fill="#5CD3F2"/>
</svg>
