<svg width="33" height="32" viewBox="0 0 33 32" fill="none" xmlns="http://www.w3.org/2000/svg">
<path d="M16.2894 31.45C24.973 31.45 32.0124 24.4106 32.0124 15.727C32.0124 7.04346 24.973 0.00402832 16.2894 0.00402832C7.60584 0.00402832 0.566406 7.04346 0.566406 15.727C0.566406 24.4106 7.60584 31.45 16.2894 31.45Z" fill="#333433"/>
<path d="M17.4998 13.582C17.7583 13.2908 17.9703 12.9973 18.2358 12.7481C19.0511 11.9794 20.0154 11.5927 21.1428 11.602C21.7624 11.6067 22.3727 11.6509 22.969 11.8233C24.334 12.217 25.126 13.158 25.5057 14.4904C25.7899 15.4897 25.8411 16.5169 25.8434 17.5465C25.8481 19.7174 25.8365 21.8907 25.8434 24.0616C25.8434 24.2643 25.7875 24.3179 25.5872 24.3179C24.4691 24.3086 23.3487 24.3086 22.2306 24.3179C22.0327 24.3179 21.9907 24.2596 21.9907 24.0733C21.9977 22.0072 21.9977 19.9411 21.9907 17.8726C21.9907 17.3555 21.9558 16.836 21.8114 16.3329C21.5435 15.4058 20.8796 14.933 19.9083 14.9842C18.5806 15.0541 17.8911 15.711 17.7234 17.0597C17.6838 17.3811 17.6628 17.7049 17.6651 18.0287C17.6651 20.0389 17.6651 22.0491 17.6698 24.0593C17.6698 24.2596 17.6209 24.3179 17.4159 24.3179C16.2885 24.3086 15.1611 24.3086 14.0337 24.3179C13.852 24.3179 13.8008 24.2713 13.8008 24.0873C13.8054 20.1088 13.8054 16.1279 13.8008 12.1494C13.8008 11.9514 13.866 11.9072 14.0523 11.9072C15.1215 11.9142 16.193 11.9165 17.2622 11.9072C17.4602 11.9072 17.5091 11.9701 17.5068 12.1564C17.4951 12.6316 17.5021 13.1068 17.5021 13.5843L17.4998 13.582Z" fill="#5CD3F2"/>
<path d="M11.3683 18.1277C11.3683 20.096 11.3659 22.0643 11.3729 24.0326C11.3729 24.2515 11.3194 24.3168 11.0934 24.3144C9.97533 24.3028 8.85725 24.3051 7.73684 24.3144C7.55748 24.3144 7.50391 24.2702 7.50391 24.0862C7.50856 20.1007 7.50856 16.1152 7.50391 12.1274C7.50391 11.962 7.5435 11.9037 7.7182 11.9037C8.85259 11.9107 9.98698 11.9131 11.1214 11.9037C11.3403 11.9037 11.3683 11.9853 11.3683 12.174C11.3636 14.1585 11.3659 16.1431 11.3659 18.1277H11.3683Z" fill="#5CD3F2"/>
<path d="M11.681 7.95706C11.681 9.19394 10.6793 10.2002 9.44479 10.2002C8.22655 10.2002 7.21561 9.19394 7.21095 7.97569C7.20629 6.74581 8.21723 5.73254 9.44945 5.73254C10.6723 5.73254 11.6786 6.73649 11.681 7.95473V7.95706Z" fill="#5CD3F2"/>
</svg>
