<svg width="10" height="12" viewBox="0 0 10 12" fill="none" xmlns="http://www.w3.org/2000/svg">
<path fill-rule="evenodd" clip-rule="evenodd" d="M4.72121 11.9126L4.76364 11.9363L4.78061 11.9458C4.8479 11.9814 4.9232 12 4.9997 12C5.0762 12 5.15149 11.9814 5.21879 11.9458L5.23576 11.9369L5.27879 11.9126C5.51583 11.7752 5.74713 11.6285 5.97212 11.4729C6.55459 11.0707 7.09881 10.6181 7.59818 10.1205C8.77636 8.94111 10 7.16913 10 4.88926C10 3.59254 9.47322 2.34894 8.53553 1.43203C7.59785 0.515116 6.32608 0 5 0C3.67392 0 2.40215 0.515116 1.46447 1.43203C0.526784 2.34894 0 3.59254 0 4.88926C0 7.16854 1.22424 8.94111 2.40182 10.1205C2.901 10.6181 3.44501 11.0707 4.02727 11.4729C4.25247 11.6285 4.48397 11.7752 4.72121 11.9126ZM5 6.66717C5.48221 6.66717 5.94467 6.47985 6.28565 6.14643C6.62662 5.81301 6.81818 5.36079 6.81818 4.88926C6.81818 4.41772 6.62662 3.96551 6.28565 3.63208C5.94467 3.29866 5.48221 3.11134 5 3.11134C4.51779 3.11134 4.05533 3.29866 3.71435 3.63208C3.37338 3.96551 3.18182 4.41772 3.18182 4.88926C3.18182 5.36079 3.37338 5.81301 3.71435 6.14643C4.05533 6.47985 4.51779 6.66717 5 6.66717Z" fill="#333433"/>
</svg>
