<svg width="12" height="10" viewBox="0 0 12 10" fill="none" xmlns="http://www.w3.org/2000/svg">
<path d="M0 2.76758V7.58814C0 8.03517 0.180612 8.46388 0.502103 8.77998C0.823594 9.09607 1.25963 9.27365 1.71429 9.27365H10.2857C10.7404 9.27365 11.1764 9.09607 11.4979 8.77998C11.8194 8.46388 12 8.03517 12 7.58814V2.76758L6.89829 5.85375C6.62814 6.01716 6.31718 6.10368 6 6.10368C5.68282 6.10368 5.37186 6.01716 5.10171 5.85375L0 2.76758Z" fill="#333433"/>
<path d="M12 1.77428V1.68551C12 1.23849 11.8194 0.80977 11.4979 0.493675C11.1764 0.17758 10.7404 0 10.2857 0H1.71429C1.25963 0 0.823594 0.17758 0.502103 0.493675C0.180612 0.80977 0 1.23849 0 1.68551V1.77428L5.55086 5.13295C5.68593 5.21465 5.84141 5.25791 6 5.25791C6.15859 5.25791 6.31407 5.21465 6.44914 5.13295L12 1.77428Z" fill="#333433"/>
</svg>
