<svg width="16" height="16" viewBox="0 0 16 16" fill="none" xmlns="http://www.w3.org/2000/svg">
<path d="M10.9985 2.50001C10.9985 1.91977 11.2004 1.3576 11.5694 0.909862C11.9385 0.462125 12.4518 0.156706 13.0214 0.0459613C13.5909 -0.0647836 14.1813 0.0260419 14.6913 0.302869C15.2012 0.579696 15.599 1.02528 15.8164 1.56325C16.0338 2.10122 16.0573 2.69806 15.8829 3.25147C15.7085 3.80487 15.347 4.28038 14.8604 4.59647C14.3739 4.91257 13.7925 5.04957 13.216 4.98398C12.6394 4.9184 12.1037 4.65432 11.7005 4.23701L4.96852 7.60401C5.0103 7.86636 5.0103 8.13366 4.96852 8.39601L11.7015 11.763C12.1167 11.3336 12.6719 11.067 13.2667 11.0115C13.8614 10.956 14.4563 11.1153 14.9438 11.4606C15.4312 11.8058 15.7789 12.3142 15.924 12.8936C16.0691 13.473 16.0019 14.0852 15.7346 14.6194C15.4673 15.1536 15.0176 15.5744 14.4669 15.8057C13.9161 16.037 13.3008 16.0634 12.7323 15.8803C12.1637 15.6971 11.6796 15.3165 11.3674 14.8072C11.0552 14.298 10.9357 13.6938 11.0305 13.104L4.29752 9.73701C3.95137 10.0951 3.50613 10.3417 3.01891 10.4451C2.53169 10.5484 2.02469 10.5039 1.56293 10.3172C1.10118 10.1306 0.705708 9.8102 0.42724 9.39725C0.148773 8.9843 0 8.49758 0 7.99951C0 7.50144 0.148773 7.01473 0.42724 6.60178C0.705708 6.18882 1.10118 5.86846 1.56293 5.68177C2.02469 5.49509 2.53169 5.45058 3.01891 5.55396C3.50613 5.65734 3.95137 5.9039 4.29752 6.26201L11.0305 2.89601C11.0095 2.76506 10.9988 2.63265 10.9985 2.50001Z" fill="#F6F5EF"/>
</svg>
