<svg width="32" height="32" viewBox="0 0 32 32" fill="none" xmlns="http://www.w3.org/2000/svg">
<path d="M16.2465 31.4501C24.93 31.4501 31.9695 24.4106 31.9695 15.727C31.9695 7.04346 24.93 0.00402832 16.2465 0.00402832C7.56288 0.00402832 0.523438 7.04346 0.523438 15.727C0.523438 24.4106 7.56288 31.4501 16.2465 31.4501Z" fill="#333433"/>
<path d="M13.0643 24.783C20.7441 24.783 24.9439 18.4216 24.9439 12.9034C24.9439 12.7217 24.9393 12.5424 24.9323 12.363C25.7476 11.7737 26.4557 11.0376 27.0147 10.2014C26.267 10.5345 25.461 10.7581 24.6178 10.8583C25.4797 10.3412 26.1412 9.52356 26.4533 8.54989C25.6474 9.02741 24.7529 9.37681 23.8026 9.56315C23.0409 8.75255 21.9554 8.24475 20.7558 8.24475C18.4497 8.24475 16.5793 10.1152 16.5793 12.4189C16.5793 12.7474 16.6166 13.0641 16.6888 13.3716C13.2181 13.1969 10.141 11.5361 8.0842 9.00877C7.72548 9.62605 7.51817 10.3435 7.51817 11.1075C7.51817 12.5563 8.25424 13.8352 9.37698 14.5829C8.69216 14.5619 8.04926 14.3732 7.48556 14.0611C7.48556 14.0774 7.48556 14.096 7.48556 14.1147C7.48556 16.1365 8.92509 17.8253 10.8351 18.2073C10.4834 18.3028 10.1154 18.3541 9.7357 18.3541C9.46783 18.3541 9.20461 18.3284 8.95071 18.2795C9.4818 19.938 11.0238 21.1446 12.85 21.1796C11.4198 22.3 9.62157 22.9661 7.66492 22.9661C7.32717 22.9661 6.99641 22.9475 6.66797 22.9079C8.51513 24.0912 10.7094 24.783 13.0667 24.783" fill="#5CD3F2"/>
</svg>
